<svg width="39" height="41" viewBox="0 0 39 41" fill="none" xmlns="http://www.w3.org/2000/svg">
<path d="M12.519 27.15H34.6V30.25H11.7C9.85441 30.25 8.3 28.6527 8.3 26.65C8.3 26.0136 8.45571 25.4195 8.7268 24.9208L8.72685 24.9208L8.73036 24.9141L11.3629 19.8916L11.4759 19.6759L11.3758 19.4539L4.35576 3.89437L4.22295 3.6H3.9H0.5V0.5H6.05234L7.75304 4.30407L7.88534 4.6H8.2095H37.05C37.8231 4.6 38.5 5.27479 38.5 6.15C38.5 6.4286 38.4369 6.69252 38.3267 6.89522L38.3267 6.89519L38.3232 6.90168L31.3422 20.2062L31.3417 20.2073C30.7591 21.3242 29.6365 22.05 28.3725 22.05H13.845H13.5428L13.4023 22.3175L11.6473 25.659L11.6181 25.7147L11.6036 25.7758L11.5451 26.0218L11.5315 26.0789V26.1375C11.5315 26.6768 11.9466 27.15 12.519 27.15ZM8.3195 36.9C8.3195 34.8939 9.85758 33.3 11.7 33.3C13.5456 33.3 15.1 34.8973 15.1 36.9C15.1 38.9027 13.5456 40.5 11.7 40.5C9.85758 40.5 8.3195 38.9061 8.3195 36.9ZM27.8195 36.9C27.8195 34.8939 29.3576 33.3 31.2 33.3C33.0456 33.3 34.6 34.8973 34.6 36.9C34.6 38.9027 33.0456 40.5 31.2 40.5C29.3576 40.5 27.8195 38.9061 27.8195 36.9Z" fill="white" stroke="#E5E5E5"/>
</svg>
