<svg width="233" height="76" viewBox="0 0 233 76" fill="none" xmlns="http://www.w3.org/2000/svg">
<path d="M111.918 50H105.102V38.125H95.0039V50H88.1484V21.5625H95.0039V32.8516H105.102V21.5625H111.918V50ZM132.777 44.6875H123.383L121.742 50H114.418L124.848 21.5625H131.293L141.801 50H134.438L132.777 44.6875ZM125.023 39.3945H131.137L128.07 29.5312L125.023 39.3945ZM150.746 44.7266H162.68V50H143.891V21.5625H150.746V44.7266ZM172.426 44.7266H184.359V50H165.57V21.5625H172.426V44.7266ZM204.887 37.9492H194.105V44.7266H206.84V50H187.25V21.5625H206.879V26.8555H194.105V32.8516H204.887V37.9492ZM220.043 33.9062L225.277 21.5625H232.68L223.52 39.7852V50H216.566V39.7852L207.426 21.5625H214.789L220.043 33.9062Z" fill="#EEF6FF"/>
<path d="M38 76C58.085 76 74.3672 59.7179 74.3672 39.6328C74.3672 19.5478 58.085 3.26562 38 3.26562C17.915 3.26562 1.63281 19.5478 1.63281 39.6328C1.63281 59.7179 17.915 76 38 76Z" fill="#001037"/>
<path d="M32.1806 56.2467C34.0583 56.2467 35.7882 57.1911 36.8081 58.7731C36.8332 58.8121 36.8754 58.8372 36.9217 58.8406C36.9254 58.8409 36.9293 58.8411 36.933 58.8411C36.9754 58.8411 37.016 58.823 37.0442 58.7909C38.5731 57.0615 40.7711 56.0696 43.0747 56.0696C43.8597 56.0696 44.6179 56.1845 45.3356 56.3951L42.6866 49.6049H33.3133L30.6354 56.4692C31.126 56.3252 31.6442 56.2467 32.1806 56.2467Z" fill="#D9EAFC"/>
<path d="M34.5353 49.6047H33.3133L30.6354 56.4691C31.0522 56.3469 31.4898 56.2752 31.9407 56.2553L34.5353 49.6047Z" fill="#AEC1ED"/>
<path d="M29.3292 63.2629C29.3351 63.3021 29.3563 63.3373 29.3882 63.3607C29.4138 63.3796 29.4446 63.3895 29.476 63.3895C29.4837 63.3895 29.4915 63.3889 29.4993 63.3877C30.0292 63.3034 30.5613 63.2607 31.0809 63.2607C33.619 63.2607 36.0402 64.2144 37.8988 65.9461C37.9273 65.9726 37.9636 65.9858 38 65.9858C38.0364 65.9858 38.0727 65.9726 38.1012 65.9461C39.9597 64.2144 42.381 63.2607 44.9191 63.2607C45.4385 63.2607 45.9708 63.3034 46.5007 63.3877C46.5086 63.3889 46.5163 63.3895 46.524 63.3895C46.5553 63.3895 46.5862 63.3796 46.6117 63.3607C46.6437 63.3373 46.6649 63.3021 46.6708 63.2629C46.9451 61.4166 47.64 59.668 48.6824 58.1419C47.2162 56.7656 45.2448 55.921 43.0748 55.921C40.629 55.921 38.4348 56.9936 36.933 58.6925C35.9272 57.1323 34.1753 56.0981 32.1808 56.0981C30.2676 56.0981 28.5778 57.0497 27.5552 58.5046C28.4651 59.9428 29.0764 61.5611 29.3292 63.2629Z" fill="#AEC1ED"/>
<path d="M29.4761 63.241C28.5828 57.2278 23.3998 52.6143 17.1381 52.6143C12.7912 52.6143 8.96503 54.8384 6.73193 58.2099C10.151 63.9525 15.1075 68.671 21.033 71.8025C21.6667 67.4138 25.1073 63.9351 29.4761 63.241Z" fill="#445EA0"/>
<path d="M18.3838 54.1481C21.5651 54.1481 24.4813 55.2765 26.7594 57.152C24.4715 54.3814 21.0121 52.6143 17.1381 52.6143C12.7912 52.6143 8.96503 54.8384 6.73193 58.2099C7.02688 58.7052 7.33414 59.1926 7.65165 59.6723C10.0443 56.3286 13.9585 54.1481 18.3838 54.1481Z" fill="#293D7C"/>
<path d="M58.8618 52.6143C52.6001 52.6143 47.4171 57.228 46.5238 63.241C50.8926 63.9351 54.3332 67.4138 54.9669 71.8025C60.8923 68.671 65.8489 63.9524 69.268 58.2099C67.0349 54.8384 63.2088 52.6143 58.8618 52.6143Z" fill="#445EA0"/>
<path d="M59.6166 52.6374C59.3669 52.6226 59.1154 52.6143 58.8619 52.6143C52.6002 52.6143 47.4172 57.228 46.5239 63.241C46.9894 63.315 47.4436 63.4224 47.8857 63.5574C49.1269 57.8753 53.7944 53.4755 59.6166 52.6374Z" fill="#293D7C"/>
<path d="M44.919 63.1122C42.2448 63.1122 39.8135 64.1477 38 65.8374C36.1866 64.1476 33.7553 63.1122 31.0811 63.1122C25.9696 63.1122 21.7414 66.8894 21.0326 71.8044C26.0985 74.4818 31.8715 76 38 76C44.1286 76 49.9016 74.4818 54.9675 71.8044C54.2587 66.8894 50.0305 63.1122 44.919 63.1122Z" fill="#293D7C"/>
<path d="M33.2033 64.3745C34.6038 64.3745 35.9404 64.6469 37.1636 65.1408C35.468 63.8688 33.3636 63.1122 31.0808 63.1122C25.9694 63.1122 21.7411 66.8894 21.0323 71.8044C21.6295 72.12 22.2368 72.4189 22.8529 72.7016C23.893 67.9404 28.13 64.3745 33.2033 64.3745Z" fill="#1A2B63"/>
<path d="M41.3441 49.6047H39.0999L39.3862 51.87C39.4632 52.4801 40.0211 52.9116 40.6302 52.8349C41.2402 52.7577 41.6723 52.2007 41.5951 51.5908L41.3441 49.6047Z" fill="#AEC1ED"/>
<path d="M34.6561 49.6047L34.0674 54.2627C33.9903 54.8726 34.4223 55.4297 35.0324 55.5067C35.0797 55.5127 35.1268 55.5156 35.1734 55.5156C35.726 55.5155 36.2055 55.1043 36.2766 54.5417L36.9006 49.6046H34.6561V49.6047Z" fill="#AEC1ED"/>
<path d="M26.5864 29.0518C26.5864 27.8412 26.6318 26.634 26.7167 25.4355C23.1453 27.4467 20.6848 31.9271 20.6848 37.1143C20.6848 39.8538 21.366 42.4665 22.6546 44.6698C22.7756 44.8767 22.9945 44.995 23.2219 44.995C23.305 44.995 23.3892 44.9792 23.4701 44.9461C25.1636 44.2538 26.9734 43.8982 28.8501 43.8833C27.3682 39.3221 26.5864 34.2284 26.5864 29.0518Z" fill="#3F3A3A"/>
<path d="M22.3679 37.1143C22.3679 32.8299 24.0475 29.0293 26.6441 26.7024C26.664 26.2792 26.687 25.8568 26.7168 25.4355C23.1454 27.4467 20.6849 31.9271 20.6849 37.1143C20.6849 39.8538 21.3661 42.4665 22.6547 44.6698C22.7757 44.8767 22.9946 44.995 23.222 44.995C23.3052 44.995 23.3893 44.9792 23.4702 44.9461C23.7493 44.832 24.0328 44.7305 24.3179 44.6347C23.0424 42.4387 22.3679 39.8394 22.3679 37.1143Z" fill="#3F3A3A"/>
<path d="M49.2831 25.4355C49.3681 26.6341 49.4135 27.8414 49.4135 29.0518C49.4135 34.2282 48.6317 39.322 47.1497 43.8833C49.0265 43.8982 50.8361 44.2538 52.5296 44.9461C52.6105 44.9792 52.6948 44.995 52.7778 44.995C53.0054 44.995 53.2242 44.8765 53.3451 44.6698C54.6339 42.4665 55.3149 39.8538 55.3149 37.1143C55.3151 31.9271 52.8546 27.4467 49.2831 25.4355Z" fill="#3F3A3A"/>
<path d="M32.316 45.5889V49.0109C32.316 49.4191 32.65 49.7531 33.0582 49.7531H42.9416C43.3498 49.7531 43.6838 49.4191 43.6838 49.0109V45.5889H32.316Z" fill="#3F3A3A"/>
<path d="M34.8405 49.0109V45.5889H32.316V49.0109C32.316 49.4191 32.65 49.7531 33.0582 49.7531H35.5827C35.1745 49.7531 34.8405 49.4191 34.8405 49.0109Z" fill="black"/>
<path d="M47.033 13.4066H28.9668C27.3111 18.1793 26.4379 23.5512 26.4379 29.0517C26.4379 34.7699 27.3862 40.3904 29.1802 45.3057C29.275 45.5648 29.5214 45.7373 29.7973 45.7373H46.2025C46.4784 45.7373 46.725 45.5648 46.8195 45.3057C48.6135 40.3904 49.5619 34.7699 49.5619 29.0517C49.562 23.5512 48.6888 18.1794 47.033 13.4066Z" fill="#EEF6FF"/>
<path d="M31.284 45.3057C29.4899 40.3904 28.5416 34.7699 28.5416 29.0517C28.5416 23.5512 29.4149 18.1793 31.0706 13.4066H28.9669C27.3112 18.1793 26.438 23.5512 26.438 29.0517C26.438 34.7699 27.3864 40.3904 29.1804 45.3057C29.2751 45.5648 29.5215 45.7373 29.7974 45.7373H31.9011C31.6251 45.7373 31.3787 45.5648 31.284 45.3057Z" fill="#D9EAFC"/>
<path d="M33.7219 13.4066V15.8698C33.7219 16.278 34.0559 16.6119 34.4641 16.6119H41.536C41.9442 16.6119 42.2781 16.278 42.2781 15.8698V13.4066H33.7219Z" fill="#3F3A3A"/>
<path d="M35.4049 15.8698V13.4066H33.7219V15.8698C33.7219 16.278 34.0559 16.6119 34.4641 16.6119H36.1471C35.7389 16.6119 35.4049 16.278 35.4049 15.8698Z" fill="black"/>
<path d="M38.0001 0C37.8536 0 37.7072 0.0488359 37.5867 0.146359C34.2709 2.83145 31.4779 6.90457 29.51 11.9255C29.3007 12.4597 29.1041 13.0045 28.9154 13.555H47.0846C46.8959 13.0045 46.6993 12.4597 46.49 11.9255C44.5221 6.90457 41.7293 2.83145 38.4133 0.146359C38.2929 0.0488359 38.1466 0 38.0001 0Z" fill="#3F3A3A"/>
<path d="M39.0519 0.686969C38.8413 0.501273 38.6286 0.320625 38.4135 0.146359C38.2929 0.0488359 38.1466 0 38.0001 0C37.8536 0 37.7072 0.0488359 37.5867 0.146359C34.2709 2.83145 31.4779 6.90457 29.51 11.9255C29.3007 12.4597 29.1041 13.0045 28.9154 13.555H31.0191C31.2077 13.0045 31.4044 12.4597 31.6137 11.9255C33.454 7.23024 36.0158 3.36463 39.0519 0.686969Z" fill="black"/>
<path d="M38 34.4301C42.1827 34.4301 45.5733 31.0394 45.5733 26.8568C45.5733 22.6742 42.1827 19.2835 38 19.2835C33.8174 19.2835 30.4268 22.6742 30.4268 26.8568C30.4268 31.0394 33.8174 34.4301 38 34.4301Z" fill="#445EA0"/>
<path d="M38 31.7153C40.6833 31.7153 42.8585 29.5401 42.8585 26.8568C42.8585 24.1735 40.6833 21.9983 38 21.9983C35.3167 21.9983 33.1415 24.1735 33.1415 26.8568C33.1415 29.5401 35.3167 31.7153 38 31.7153Z" fill="#69CDFF"/>
<path d="M34.9226 26.8571C34.9226 29.2361 36.6327 31.2145 38.8906 31.6329C38.6017 31.6864 38.3044 31.7158 38 31.7158C35.3165 31.7158 33.1415 29.5404 33.1415 26.8571C33.1415 24.1738 35.3167 21.9986 38 21.9986C38.3043 21.9986 38.6017 22.028 38.8906 22.0814C36.6327 22.4999 34.9226 24.4781 34.9226 26.8571Z" fill="#52BBEF"/>
<path d="M16.3483 26.5313C16.1781 26.5313 16.0246 26.4287 15.9594 26.2714C15.1307 24.2706 14.5197 23.6598 12.5189 22.831C12.3616 22.7659 12.2592 22.6124 12.2592 22.4421C12.2592 22.2719 12.3617 22.1184 12.5189 22.0532C14.5199 21.2242 15.1307 20.6132 15.9594 18.6126C16.0246 18.4552 16.1781 18.3527 16.3483 18.3527C16.5186 18.3527 16.6721 18.4552 16.7372 18.6126C17.5661 20.6132 18.1771 21.2242 20.1779 22.0532C20.3352 22.1184 20.4378 22.2719 20.4378 22.4421C20.4378 22.6124 20.3352 22.766 20.1779 22.831C18.1771 23.6596 17.5661 24.2706 16.7372 26.2714C16.6721 26.4287 16.5186 26.5313 16.3483 26.5313Z" fill="white"/>
<path d="M16.8009 25.4299C15.9722 23.4291 15.3612 22.8183 13.3604 21.9895C13.2616 21.9487 13.1845 21.8727 13.1407 21.7798C12.9486 21.8697 12.7438 21.96 12.5189 22.0532C12.3616 22.1184 12.2592 22.2719 12.2592 22.4421C12.2592 22.6124 12.3617 22.766 12.5189 22.831C14.5197 23.6597 15.1307 24.2706 15.9594 26.2714C16.0246 26.4287 16.1781 26.5313 16.3483 26.5313C16.5186 26.5313 16.6721 26.4287 16.7372 26.2714C16.8303 26.0465 16.9207 25.8416 17.0105 25.6497C16.9177 25.6059 16.8419 25.5287 16.8009 25.4299Z" fill="#D9EAFC"/>
<path d="M61.0774 29.8959C60.9278 29.8959 60.7929 29.8058 60.7356 29.6675C60.0072 27.9088 59.4702 27.3719 57.7115 26.6435C57.5733 26.5864 57.483 26.4513 57.483 26.3017C57.483 26.1519 57.5731 26.0171 57.7115 25.9598C59.4703 25.2311 60.0072 24.6941 60.7356 22.9355C60.7929 22.7972 60.9278 22.7071 61.0774 22.7071C61.2271 22.7071 61.362 22.7972 61.4193 22.9355C62.1478 24.6942 62.6849 25.2311 64.4437 25.9598C64.5819 26.0171 64.672 26.1519 64.672 26.3017C64.672 26.4513 64.5819 26.5862 64.4436 26.6435C62.6849 27.3719 62.1478 27.9088 61.4193 29.6675C61.3622 29.8057 61.2272 29.8959 61.0774 29.8959Z" fill="white"/>
<path d="M61.4753 28.9278C60.7468 27.1691 60.2099 26.6322 58.451 25.9037C58.3642 25.8678 58.2963 25.8011 58.2579 25.7193C58.0891 25.7983 57.9089 25.8777 57.7114 25.9597C57.5732 26.0169 57.4829 26.1517 57.4829 26.3015C57.4829 26.4511 57.573 26.5861 57.7114 26.6434C59.4702 27.3717 60.0071 27.9086 60.7355 29.6673C60.7928 29.8057 60.9277 29.8958 61.0773 29.8958C61.2269 29.8958 61.3619 29.8057 61.4192 29.6673C61.501 29.4698 61.5804 29.2895 61.6595 29.1208C61.578 29.0825 61.5114 29.0146 61.4753 28.9278Z" fill="#D9EAFC"/>
<path d="M57.2181 14.2605C57.0437 14.2605 56.8865 14.1554 56.8197 13.9944C55.9709 11.9451 55.3452 11.3194 53.2959 10.4708C53.1349 10.4041 53.0299 10.2468 53.0299 10.0725C53.0299 9.89796 53.135 9.74091 53.2959 9.67412C55.3454 8.82506 55.971 8.19939 56.8197 6.15036C56.8865 5.98916 57.0437 5.88406 57.2181 5.88406C57.3925 5.88406 57.5497 5.98916 57.6165 6.15036C58.4654 8.19954 59.0911 8.8252 61.1404 9.67412C61.3014 9.74091 61.4064 9.89796 61.4064 10.0725C61.4064 10.2468 61.3013 10.4041 61.1402 10.4708C59.0909 11.3194 58.4654 11.9452 57.6163 13.9944C57.5497 14.1554 57.3925 14.2605 57.2181 14.2605Z" fill="white"/>
<path d="M57.6817 13.1326C56.8328 11.0834 56.2071 10.4577 54.1578 9.60895C54.0565 9.5671 53.9777 9.48931 53.9327 9.39417C53.7362 9.48634 53.5262 9.57882 53.2958 9.67412C53.1347 9.74091 53.0298 9.89796 53.0298 10.0725C53.0298 10.2468 53.1349 10.4041 53.2958 10.4708C55.3451 11.3195 55.9709 11.9452 56.8195 13.9944C56.8863 14.1555 57.0435 14.2605 57.2179 14.2605C57.3924 14.2605 57.5496 14.1555 57.6164 13.9944C57.7118 13.764 57.8043 13.5541 57.8963 13.3576C57.8012 13.3128 57.7235 13.2338 57.6817 13.1326Z" fill="#D9EAFC"/>
</svg>
