<svg width="17" height="17" viewBox="0 0 17 17" fill="none" xmlns="http://www.w3.org/2000/svg">
<path d="M6.30818 12.1498V11.3819L6.57061 11.1098C7.67867 12.0623 9.11721 12.6358 10.6821 12.6358C14.1715 12.6358 17 9.80732 17 6.3179C17 2.82847 14.1715 0 10.6821 0C7.19268 0 4.36421 2.82847 4.36421 6.3179C4.36421 7.88279 4.93768 9.32133 5.89022 10.4294L5.61807 10.6918H4.8502L0 15.5517L1.44826 17L6.30818 12.1498ZM6.30818 6.3179C6.30818 3.89766 8.26186 1.94397 10.6821 1.94397C13.1023 1.94397 15.056 3.89766 15.056 6.3179C15.056 8.73814 13.1023 10.6918 10.6821 10.6918C8.26186 10.6918 6.30818 8.73814 6.30818 6.3179Z" fill="white"/>
</svg>
