<svg width="1019" height="99" viewBox="0 0 1019 99" fill="none" xmlns="http://www.w3.org/2000/svg">
<path d="M24.5898 56.2266L23.3013 56.3988L23.9065 60.925L25.7759 56.7588L24.5898 56.2266ZM48.5156 2.90625V1.60625H47.6741L47.3296 2.37404L48.5156 2.90625ZM64.9219 2.90625L66.0875 3.48186L67.0137 1.60625H64.9219V2.90625ZM29.8145 74V75.3H30.6224L30.9801 74.5756L29.8145 74ZM14.873 74L13.5936 74.2302L13.7861 75.3H14.873V74ZM2.08008 2.90625V1.60625H0.52527L0.800628 3.13648L2.08008 2.90625ZM17.4609 2.90625L18.7495 2.73397L18.5987 1.60625H17.4609V2.90625ZM25.7759 56.7588L49.7017 3.43846L47.3296 2.37404L23.4038 55.6944L25.7759 56.7588ZM48.5156 4.20625H64.9219V1.60625H48.5156V4.20625ZM63.7562 2.33064L28.6488 73.4244L30.9801 74.5756L66.0875 3.48186L63.7562 2.33064ZM29.8145 72.7H14.873V75.3H29.8145V72.7ZM16.1525 73.7698L3.35953 2.67602L0.800628 3.13648L13.5936 74.2302L16.1525 73.7698ZM2.08008 4.20625H17.4609V1.60625H2.08008V4.20625ZM16.1724 3.07853L23.3013 56.3988L25.8784 56.0543L18.7495 2.73397L16.1724 3.07853ZM75.2246 74V75.3H76.3189L76.5056 74.2217L75.2246 74ZM60.918 74L59.637 73.7783L59.3736 75.3H60.918V74ZM73.2227 2.90625V1.60625H72.1283L71.9417 2.68455L73.2227 2.90625ZM87.5293 2.90625L88.8102 3.12795L89.0736 1.60625H87.5293V2.90625ZM75.2246 72.7H60.918V75.3H75.2246V72.7ZM62.1989 74.2217L74.5036 3.12795L71.9417 2.68455L59.637 73.7783L62.1989 74.2217ZM73.2227 4.20625H87.5293V1.60625H73.2227V4.20625ZM86.2483 2.68455L73.9437 73.7783L76.5056 74.2217L88.8102 3.12795L86.2483 2.68455ZM131.475 59.3516L132.76 59.1545L132.59 58.0516H131.475V59.3516ZM106.67 59.3516V58.0516H105.866L105.507 58.7702L106.67 59.3516ZM99.3457 74V75.3H100.149L100.508 74.5814L99.3457 74ZM83.5742 74L82.4276 73.3873L81.4056 75.3H83.5742V74ZM121.562 2.90625V1.60625H120.783L120.416 2.29359L121.562 2.90625ZM134.795 2.90625L136.072 2.66329L135.871 1.60625H134.795V2.90625ZM148.32 74V75.3H149.891L149.597 73.757L148.32 74ZM133.721 74L132.436 74.197L132.605 75.3H133.721V74ZM112.529 47.4863L111.365 46.9084L110.433 48.7863H112.529V47.4863ZM129.668 47.4863V48.7863H131.179L130.953 47.2919L129.668 47.4863ZM125.664 21.0215L126.949 20.827L126.333 16.7502L124.5 20.4435L125.664 21.0215ZM131.475 58.0516H106.67V60.6516H131.475V58.0516ZM105.507 58.7702L98.1829 73.4186L100.508 74.5814L107.833 59.9329L105.507 58.7702ZM99.3457 72.7H83.5742V75.3H99.3457V72.7ZM84.7208 74.6127L122.709 3.51891L120.416 2.29359L82.4276 73.3873L84.7208 74.6127ZM121.562 4.20625H134.795V1.60625H121.562V4.20625ZM133.518 3.14921L147.043 74.243L149.597 73.757L136.072 2.66329L133.518 3.14921ZM148.32 72.7H133.721V75.3H148.32V72.7ZM135.006 73.803L132.76 59.1545L130.19 59.5486L132.436 74.197L135.006 73.803ZM112.529 48.7863H129.668V46.1863H112.529V48.7863ZM130.953 47.2919L126.949 20.827L124.379 21.216L128.383 47.6808L130.953 47.2919ZM124.5 20.4435L111.365 46.9084L113.694 48.0643L126.829 21.5994L124.5 20.4435ZM195.781 2.90625V1.60625H194.684L194.5 2.68759L195.781 2.90625ZM210.088 2.90625L211.37 3.12368L211.627 1.60625H210.088V2.90625ZM201.738 52.125L200.457 51.9076L200.452 51.9321L200.449 51.9569L201.738 52.125ZM187.969 72.3398L187.387 71.1771L187.969 72.3398ZM175.518 75.0254L175.546 73.7257L175.543 73.7256L175.518 75.0254ZM154.814 52.9551L154.819 51.6551L153.551 51.6508L153.515 52.9183L154.814 52.9551ZM169.219 53.0039L170.515 53.0983L170.617 51.7086L169.223 51.7039L169.219 53.0039ZM176.299 63.209L176.344 61.9098L176.333 61.9094L176.323 61.9092L176.299 63.209ZM187.383 52.125L186.101 51.9063L186.1 51.9113L187.383 52.125ZM195.781 4.20625H210.088V1.60625H195.781V4.20625ZM208.806 2.68882L200.457 51.9076L203.02 52.3424L211.37 3.12368L208.806 2.68882ZM200.449 51.9569C199.888 56.2592 198.459 60.0847 196.171 63.4554L198.322 64.9157C200.851 61.19 202.417 56.9751 203.027 52.2931L200.449 51.9569ZM196.171 63.4554C193.885 66.8225 190.961 69.3902 187.387 71.1771L188.55 73.5026C192.528 71.5134 195.79 68.645 198.322 64.9157L196.171 63.4554ZM187.387 71.1771C183.814 72.9639 179.875 73.8191 175.546 73.7257L175.49 76.3251C180.21 76.427 184.572 75.4919 188.55 73.5026L187.387 71.1771ZM175.543 73.7256C169.087 73.6003 164.28 71.6993 160.933 68.1734L159.047 69.9633C162.992 74.1197 168.537 76.1901 175.492 76.3251L175.543 73.7256ZM160.933 68.1734C157.591 64.6526 155.925 59.6566 156.114 52.9919L153.515 52.9183C153.313 60.0556 155.097 65.8018 159.047 69.9633L160.933 68.1734ZM154.81 54.2551L169.214 54.3039L169.223 51.7039L154.819 51.6551L154.81 54.2551ZM167.922 52.9095C167.669 56.3871 168.128 59.269 169.554 61.3255C171.034 63.4575 173.373 64.4544 176.274 64.5088L176.323 61.9092C174.016 61.866 172.572 61.1132 171.691 59.8434C170.757 58.4982 170.28 56.3265 170.515 53.0983L167.922 52.9095ZM176.254 64.5082C179.442 64.6182 182.202 63.5393 184.445 61.2962L182.606 59.4577C180.878 61.186 178.819 61.9951 176.344 61.9098L176.254 64.5082ZM184.445 61.2962C186.668 59.0729 188.047 56.0494 188.665 52.3387L186.1 51.9113C185.547 55.2319 184.354 57.7096 182.606 59.4577L184.445 61.2962ZM188.664 52.3437L197.063 3.12491L194.5 2.68759L186.101 51.9063L188.664 52.3437ZM257.109 43.1895V44.4895H258.198L258.389 43.4182L257.109 43.1895ZM229.863 43.1895V41.8895H228.77L228.583 42.9662L229.863 43.1895ZM226.543 62.2324L225.262 62.0091L224.997 63.5324H226.543V62.2324ZM258.574 62.2324L259.855 62.4556L260.12 60.9324H258.574V62.2324ZM256.523 74V75.3H257.616L257.804 74.2232L256.523 74ZM210.186 74L208.905 73.7774L208.64 75.3H210.186V74ZM222.539 2.90625V1.60625H221.445L221.258 2.68369L222.539 2.90625ZM268.779 2.90625L270.059 3.13277L270.33 1.60625H268.779V2.90625ZM266.68 14.7715V16.0715H267.77L267.96 14.998L266.68 14.7715ZM234.795 14.7715V13.4715H233.704L233.515 14.5464L234.795 14.7715ZM231.816 31.7148L230.536 31.4898L230.268 33.0148H231.816V31.7148ZM259.16 31.7148L260.44 31.9436L260.713 30.4148H259.16V31.7148ZM257.109 41.8895H229.863V44.4895H257.109V41.8895ZM228.583 42.9662L225.262 62.0091L227.824 62.4557L231.144 43.4128L228.583 42.9662ZM226.543 63.5324H258.574V60.9324H226.543V63.5324ZM257.294 62.0092L255.243 73.7768L257.804 74.2232L259.855 62.4556L257.294 62.0092ZM256.523 72.7H210.186V75.3H256.523V72.7ZM211.466 74.2226L223.82 3.12881L221.258 2.68369L208.905 73.7774L211.466 74.2226ZM222.539 4.20625H268.779V1.60625H222.539V4.20625ZM267.499 2.67973L265.4 14.545L267.96 14.998L270.059 3.13277L267.499 2.67973ZM266.68 13.4715H234.795V16.0715H266.68V13.4715ZM233.515 14.5464L230.536 31.4898L233.097 31.9399L236.075 14.9966L233.515 14.5464ZM231.816 33.0148H259.16V30.4148H231.816V33.0148ZM257.88 31.4861L255.83 42.9607L258.389 43.4182L260.44 31.9436L257.88 31.4861ZM308.672 48.9512L308.677 47.6512L307.581 47.6472L307.391 48.7265L308.672 48.9512ZM304.277 74V75.3H305.369L305.558 74.2246L304.277 74ZM289.971 74L288.69 73.7774L288.425 75.3H289.971V74ZM302.324 2.90625L302.327 1.60625L301.231 1.6041L301.043 2.68369L302.324 2.90625ZM327.227 2.95508L327.224 4.25508H327.227V2.95508ZM345.342 9.35156L346.247 8.41861L345.342 9.35156ZM351.104 26.0508L349.808 25.9464L349.807 25.9539L351.104 26.0508ZM342.363 42.75L341.56 41.7276L341.557 41.73L342.363 42.75ZM322.148 49L322.144 50.3H322.148V49ZM310.674 37.0859L309.393 36.8618L309.129 38.3733L310.663 38.3859L310.674 37.0859ZM322.588 37.1836L322.577 38.4836H322.588V37.1836ZM336.699 26.1484L335.413 25.9629L336.699 26.1484ZM335.039 18.043L334.011 18.8388L334.019 18.849L335.039 18.043ZM328.057 14.8203L328.111 13.5215L328.086 13.5204L328.061 13.5203L328.057 14.8203ZM314.58 14.7715L314.585 13.4715L313.489 13.4675L313.3 14.5473L314.58 14.7715ZM307.391 48.7265L302.997 73.7754L305.558 74.2246L309.952 49.1758L307.391 48.7265ZM304.277 72.7H289.971V75.3H304.277V72.7ZM291.252 74.2226L303.605 3.12881L301.043 2.68369L288.69 73.7774L291.252 74.2226ZM302.322 4.20625L327.224 4.25508L327.229 1.65508L302.327 1.60625L302.322 4.20625ZM327.227 4.25508C334.661 4.25508 340.342 6.31179 344.436 10.2845L346.247 8.41861C341.552 3.86269 335.156 1.65508 327.227 1.65508V4.25508ZM344.436 10.2845C348.516 14.2427 350.334 19.41 349.808 25.9464L352.399 26.1552C352.979 18.9546 350.957 12.9891 346.247 8.41861L344.436 10.2845ZM349.807 25.9539C349.312 32.5705 346.568 37.7953 341.56 41.7276L343.166 43.7724C348.771 39.3714 351.853 33.4633 352.4 26.1477L349.807 25.9539ZM341.557 41.73C336.561 45.678 330.125 47.7 322.148 47.7V50.3C330.578 50.3 337.619 48.1553 343.169 43.77L341.557 41.73ZM322.153 47.7L308.677 47.6512L308.667 50.2512L322.144 50.3L322.153 47.7ZM310.663 38.3859L322.577 38.4836L322.599 35.8836L310.684 35.786L310.663 38.3859ZM322.588 38.4836C326.662 38.4836 330.15 37.4261 332.959 35.2291L331.357 33.181C329.089 34.9554 326.196 35.8836 322.588 35.8836V38.4836ZM332.959 35.2291C335.779 33.0235 337.453 30.0287 337.986 26.334L335.413 25.9629C334.969 29.039 333.615 31.4153 331.357 33.181L332.959 35.2291ZM337.986 26.334C338.508 22.7169 337.941 19.6186 336.059 17.2369L334.019 18.849C335.327 20.5038 335.867 22.8092 335.413 25.9629L337.986 26.334ZM336.067 17.2471C334.22 14.8619 331.497 13.664 328.111 13.5215L328.002 16.1192C330.801 16.237 332.733 17.1876 334.011 18.8388L336.067 17.2471ZM328.061 13.5203L314.585 13.4715L314.575 16.0715L328.052 16.1203L328.061 13.5203ZM313.3 14.5473L309.393 36.8618L311.954 37.3101L315.861 14.9956L313.3 14.5473ZM386.162 59.3516L387.447 59.1545L387.278 58.0516H386.162V59.3516ZM361.357 59.3516V58.0516H360.554L360.195 58.7702L361.357 59.3516ZM354.033 74V75.3H354.837L355.196 74.5814L354.033 74ZM338.262 74L337.115 73.3873L336.093 75.3H338.262V74ZM376.25 2.90625V1.60625H375.471L375.103 2.29359L376.25 2.90625ZM389.482 2.90625L390.76 2.66329L390.558 1.60625H389.482V2.90625ZM403.008 74V75.3H404.578L404.285 73.757L403.008 74ZM388.408 74L387.123 74.197L387.292 75.3H388.408V74ZM367.217 47.4863L366.052 46.9084L365.12 48.7863H367.217V47.4863ZM384.355 47.4863V48.7863H385.867L385.641 47.2919L384.355 47.4863ZM380.352 21.0215L381.637 20.827L381.02 16.7502L379.187 20.4435L380.352 21.0215ZM386.162 58.0516H361.357V60.6516H386.162V58.0516ZM360.195 58.7702L352.87 73.4186L355.196 74.5814L362.52 59.9329L360.195 58.7702ZM354.033 72.7H338.262V75.3H354.033V72.7ZM339.408 74.6127L377.397 3.51891L375.103 2.29359L337.115 73.3873L339.408 74.6127ZM376.25 4.20625H389.482V1.60625H376.25V4.20625ZM388.205 3.14921L401.731 74.243L404.285 73.757L390.76 2.66329L388.205 3.14921ZM403.008 72.7H388.408V75.3H403.008V72.7ZM389.693 73.803L387.447 59.1545L384.877 59.5486L387.123 74.197L389.693 73.803ZM367.217 48.7863H384.355V46.1863H367.217V48.7863ZM385.641 47.2919L381.637 20.827L379.066 21.216L383.07 47.6808L385.641 47.2919ZM379.187 20.4435L366.052 46.9084L368.381 48.0643L381.516 21.5994L379.187 20.4435ZM440.654 47.9746L441.891 47.5754L441.601 46.6746H440.654V47.9746ZM429.033 47.9746V46.6746H427.94L427.753 47.7512L429.033 47.9746ZM424.492 74V75.3H425.585L425.773 74.2234L424.492 74ZM410.186 74L408.905 73.7774L408.64 75.3H410.186V74ZM422.539 2.90625L422.542 1.60625L421.446 1.60398L421.258 2.68369L422.539 2.90625ZM446.074 2.95508L446.072 4.25508H446.074V2.95508ZM464.238 8.52148L463.381 9.49891L463.385 9.50215L464.238 8.52148ZM469.902 24L468.606 23.9042L468.606 23.9092L469.902 24ZM454.277 44.3613L453.804 43.1507L452.639 43.6063L453.049 44.7874L454.277 44.3613ZM464.287 73.2188H465.587V72.9997L465.515 72.7927L464.287 73.2188ZM464.287 74V75.3H465.587V74H464.287ZM449.053 74L447.816 74.3992L448.106 75.3H449.053V74ZM431.084 36.1094L429.803 35.8866L429.541 37.3953L431.072 37.4093L431.084 36.1094ZM441.729 36.207L441.717 37.507L441.734 37.5071L441.751 37.5068L441.729 36.207ZM451.055 33.1797L451.867 34.1948L451.868 34.1935L451.055 33.1797ZM455.498 25.123L454.211 24.9373V24.9375L455.498 25.123ZM447.002 14.8203L447.055 13.5214L447.031 13.5204L447.007 13.5203L447.002 14.8203ZM434.795 14.7715L434.8 13.4715L433.702 13.4671L433.514 14.5487L434.795 14.7715ZM440.654 46.6746H429.033V49.2746H440.654V46.6746ZM427.753 47.7512L423.212 73.7766L425.773 74.2234L430.314 48.1981L427.753 47.7512ZM424.492 72.7H410.186V75.3H424.492V72.7ZM411.466 74.2226L423.82 3.12881L421.258 2.68369L408.905 73.7774L411.466 74.2226ZM422.536 4.20625L446.072 4.25508L446.077 1.65508L422.542 1.60625L422.536 4.20625ZM446.074 4.25508C453.762 4.25508 459.466 6.06593 463.381 9.4989L465.095 7.54407C460.547 3.55516 454.142 1.65508 446.074 1.65508V4.25508ZM463.385 9.50215C467.284 12.8957 469.07 17.625 468.606 23.9042L471.199 24.0958C471.711 17.1588 469.721 11.5692 465.092 7.54082L463.385 9.50215ZM468.606 23.9092C468.279 28.5753 466.879 32.4601 464.452 35.6231C462.021 38.7911 458.498 41.3136 453.804 43.1507L454.751 45.5719C459.789 43.6005 463.737 40.8251 466.515 37.206C469.296 33.5819 470.842 29.1903 471.199 24.0908L468.606 23.9092ZM453.049 44.7874L463.059 73.6448L465.515 72.7927L455.506 43.9353L453.049 44.7874ZM462.987 73.2188V74H465.587V73.2188H462.987ZM464.287 72.7H449.053V75.3H464.287V72.7ZM450.29 73.6008L441.891 47.5754L439.417 48.3738L447.816 74.3992L450.29 73.6008ZM431.072 37.4093L441.717 37.507L441.74 34.9071L431.096 34.8094L431.072 37.4093ZM441.751 37.5068C445.753 37.4378 449.157 36.3626 451.867 34.1948L450.243 32.1646C448.069 33.9031 445.256 34.846 441.706 34.9072L441.751 37.5068ZM451.868 34.1935C454.62 31.9847 456.253 28.9922 456.785 25.3086L454.211 24.9375C453.766 28.0247 452.437 30.4034 450.241 32.1659L451.868 34.1935ZM456.785 25.3088C457.272 21.932 456.763 19.0448 454.991 16.878L452.978 18.5244C454.135 19.9383 454.635 21.999 454.211 24.9373L456.785 25.3088ZM454.991 16.878C453.211 14.7033 450.469 13.6608 447.055 13.5214L446.949 16.1192C449.915 16.2403 451.828 17.1183 452.978 18.5244L454.991 16.878ZM447.007 13.5203L434.8 13.4715L434.79 16.0715L446.997 16.1203L447.007 13.5203ZM433.514 14.5487L429.803 35.8866L432.365 36.3321L436.076 14.9942L433.514 14.5487ZM514.385 59.3516L515.67 59.1545L515.501 58.0516H514.385V59.3516ZM489.58 59.3516V58.0516H488.777L488.417 58.7702L489.58 59.3516ZM482.256 74V75.3H483.059L483.419 74.5814L482.256 74ZM466.484 74L465.338 73.3873L464.316 75.3H466.484V74ZM504.473 2.90625V1.60625H503.693L503.326 2.29359L504.473 2.90625ZM517.705 2.90625L518.982 2.66329L518.781 1.60625H517.705V2.90625ZM531.23 74V75.3H532.801L532.508 73.757L531.23 74ZM516.631 74L515.346 74.197L515.515 75.3H516.631V74ZM495.439 47.4863L494.275 46.9084L493.343 48.7863H495.439V47.4863ZM512.578 47.4863V48.7863H514.09L513.864 47.2919L512.578 47.4863ZM508.574 21.0215L509.86 20.827L509.243 16.7502L507.41 20.4435L508.574 21.0215ZM514.385 58.0516H489.58V60.6516H514.385V58.0516ZM488.417 58.7702L481.093 73.4186L483.419 74.5814L490.743 59.9329L488.417 58.7702ZM482.256 72.7H466.484V75.3H482.256V72.7ZM467.631 74.6127L505.619 3.51891L503.326 2.29359L465.338 73.3873L467.631 74.6127ZM504.473 4.20625H517.705V1.60625H504.473V4.20625ZM516.428 3.14921L529.953 74.243L532.508 73.757L518.982 2.66329L516.428 3.14921ZM531.23 72.7H516.631V75.3H531.23V72.7ZM517.916 73.803L515.67 59.1545L513.1 59.5486L515.346 74.197L517.916 73.803ZM495.439 48.7863H512.578V46.1863H495.439V48.7863ZM513.864 47.2919L509.86 20.827L507.289 21.216L511.293 47.6808L513.864 47.2919ZM507.41 20.4435L494.275 46.9084L496.604 48.0643L509.739 21.5994L507.41 20.4435ZM591.68 74.9766L591.653 76.2763L591.655 76.2763L591.68 74.9766ZM579.18 71.6562L578.511 72.7711L578.523 72.7781L579.18 71.6562ZM570.635 62.4277L569.479 63.024L569.485 63.0351L570.635 62.4277ZM567.021 48.5605L568.319 48.4795L568.319 48.4735L567.021 48.5605ZM587.627 5.20117L587.039 4.04179L587.035 4.04353L587.627 5.20117ZM602.178 1.92969L602.204 0.629957L602.202 0.629915L602.178 1.92969ZM614.727 5.34766L614.05 6.45794L614.058 6.4624L614.727 5.34766ZM623.174 14.6738L622.013 15.2589L622.015 15.2627L623.174 14.6738ZM626.689 28.4434L627.987 28.3696V28.3694L626.689 28.4434ZM605.986 71.8027L605.405 70.64L605.401 70.6417L605.986 71.8027ZM611.943 36.5L613.233 36.6671L613.236 36.6382L613.239 36.6091L611.943 36.5ZM612.334 31.8613L613.629 31.9704L613.631 31.9524L613.632 31.9342L612.334 31.8613ZM609.99 18.6777L608.885 19.3624L608.891 19.371L609.99 18.6777ZM601.494 13.9902L601.539 12.691L601.537 12.6909L601.494 13.9902ZM587.285 21.9004L586.192 21.1974L586.189 21.202L587.285 21.9004ZM581.377 44.8496L582.675 44.9229L582.676 44.9098L581.377 44.8496ZM583.672 58.1797L582.554 58.8434L582.557 58.8485L583.672 58.1797ZM592.314 63.0137L592.372 61.715L592.365 61.7146L592.358 61.7144L592.314 63.0137ZM605.01 57.0566L606.026 57.8678L606.029 57.864L605.01 57.0566ZM611.602 39.1367L612.89 39.3107L612.891 39.3038L611.602 39.1367ZM591.707 73.6768C587.18 73.5832 583.235 72.5246 579.837 70.5344L578.523 72.7781C582.351 75.0197 586.74 76.1746 591.653 76.2763L591.707 73.6768ZM579.849 70.5415C576.488 68.5254 573.799 65.6328 571.784 61.8203L569.485 63.0351C571.702 67.2305 574.71 70.4902 578.511 72.771L579.849 70.5415ZM571.79 61.8315C569.801 57.9771 568.635 53.5347 568.319 48.4795L565.724 48.6416C566.059 54.0031 567.302 58.8054 569.48 63.024L571.79 61.8315ZM568.319 48.4735C567.971 43.2891 568.522 37.7282 569.992 31.7828L567.469 31.1586C565.944 37.3226 565.356 43.1549 565.724 48.6475L568.319 48.4735ZM569.992 31.7828C571.454 25.8737 573.797 20.7075 577.01 16.2659L574.904 14.742C571.476 19.48 569.002 24.9584 567.469 31.1586L569.992 31.7828ZM577.01 16.2659C580.226 11.8205 583.965 8.53229 588.218 6.35881L587.035 4.04353C582.37 6.42735 578.329 10.0076 574.904 14.742L577.01 16.2659ZM588.215 6.36055C592.511 4.18143 597.15 3.13565 602.153 3.22946L602.202 0.629915C596.789 0.528416 591.727 1.66362 587.039 4.0418L588.215 6.36055ZM602.151 3.22942C606.74 3.32306 610.692 4.41243 614.05 6.45792L615.403 4.23739C611.6 1.9209 607.186 0.731625 602.204 0.629959L602.151 3.22942ZM614.058 6.4624C617.409 8.47289 620.062 11.3886 622.013 15.2589L624.335 14.0887C622.184 9.82099 619.206 6.51929 615.395 4.23292L614.058 6.4624ZM622.015 15.2627C623.974 19.1183 625.107 23.5288 625.392 28.5173L627.987 28.3694C627.686 23.0715 626.475 18.3023 624.333 14.085L622.015 15.2627ZM625.392 28.5171C625.709 34.1007 625.107 39.858 623.575 45.7943L626.093 46.444C627.686 40.2709 628.321 34.2443 627.987 28.3696L625.392 28.5171ZM623.575 45.7943C622.049 51.7081 619.69 56.7913 616.515 61.0667L618.602 62.6169C622.003 58.0382 624.494 52.6396 626.093 46.444L623.575 45.7943ZM616.515 61.0667C613.335 65.349 609.63 68.5276 605.405 70.64L606.568 72.9655C611.197 70.6508 615.207 67.1887 618.602 62.6169L616.515 61.0667ZM605.401 70.6417C601.205 72.7557 596.646 73.7706 591.704 73.6768L591.655 76.2763C597 76.3778 601.979 75.2768 606.571 72.9638L605.401 70.6417ZM613.239 36.6091L613.629 31.9704L611.039 31.7522L610.648 36.3909L613.239 36.6091ZM613.632 31.9342C613.964 26.0273 613.188 21.3123 611.09 17.9844L608.891 19.371C610.569 22.0328 611.355 26.1068 611.036 31.7884L613.632 31.9342ZM611.095 17.9931C608.99 14.5947 605.739 12.8346 601.539 12.691L601.45 15.2895C604.866 15.4063 607.28 16.7711 608.885 19.3624L611.095 17.9931ZM601.537 12.6909C595.074 12.4791 589.928 15.386 586.192 21.1974L588.379 22.6034C591.674 17.4773 596 15.1108 601.452 15.2895L601.537 12.6909ZM586.189 21.202C582.536 26.9365 580.54 34.8401 580.078 44.7894L582.676 44.9098C583.126 35.1977 585.068 27.8018 588.382 22.5988L586.189 21.202ZM580.079 44.7763C579.747 50.6568 580.51 55.4006 582.554 58.8434L584.79 57.516C583.123 54.7088 582.356 50.5658 582.675 44.9229L580.079 44.7763ZM582.557 58.8485C584.661 62.3556 587.968 64.1695 592.271 64.313L592.358 61.7144C588.849 61.5974 586.393 60.1887 584.787 57.5108L582.557 58.8485ZM592.257 64.3124C597.807 64.5598 602.429 62.3726 606.026 57.8678L603.994 56.2455C600.885 60.1391 597.044 61.9232 592.372 61.715L592.257 64.3124ZM606.029 57.864C609.577 53.3855 611.83 47.1606 612.89 39.3107L610.313 38.9628C609.29 46.5425 607.148 52.2642 603.991 56.2493L606.029 57.864ZM612.891 39.3038L613.233 36.6671L610.654 36.3329L610.312 38.9696L612.891 39.3038ZM702.227 43.1895V44.4895H703.315L703.506 43.4182L702.227 43.1895ZM674.98 43.1895V41.8895H673.888L673.7 42.9662L674.98 43.1895ZM671.66 62.2324L670.379 62.0091L670.114 63.5324H671.66V62.2324ZM703.691 62.2324L704.972 62.4556L705.238 60.9324H703.691V62.2324ZM701.641 74V75.3H702.734L702.921 74.2232L701.641 74ZM655.303 74L654.022 73.7774L653.757 75.3H655.303V74ZM667.656 2.90625V1.60625H666.563L666.375 2.68369L667.656 2.90625ZM713.896 2.90625L715.177 3.13277L715.447 1.60625H713.896V2.90625ZM711.797 14.7715V16.0715H712.887L713.077 14.998L711.797 14.7715ZM679.912 14.7715V13.4715H678.821L678.632 14.5464L679.912 14.7715ZM676.934 31.7148L675.653 31.4898L675.385 33.0148H676.934V31.7148ZM704.277 31.7148L705.557 31.9436L705.83 30.4148H704.277V31.7148ZM702.227 41.8895H674.98V44.4895H702.227V41.8895ZM673.7 42.9662L670.379 62.0091L672.941 62.4557L676.261 43.4128L673.7 42.9662ZM671.66 63.5324H703.691V60.9324H671.66V63.5324ZM702.411 62.0092L700.36 73.7768L702.921 74.2232L704.972 62.4556L702.411 62.0092ZM701.641 72.7H655.303V75.3H701.641V72.7ZM656.584 74.2226L668.937 3.12881L666.375 2.68369L654.022 73.7774L656.584 74.2226ZM667.656 4.20625H713.896V1.60625H667.656V4.20625ZM712.616 2.67973L710.517 14.545L713.077 14.998L715.177 3.13277L712.616 2.67973ZM711.797 13.4715H679.912V16.0715H711.797V13.4715ZM678.632 14.5464L675.653 31.4898L678.214 31.9399L681.193 14.9966L678.632 14.5464ZM676.934 33.0148H704.277V30.4148H676.934V33.0148ZM702.998 31.4861L700.947 42.9607L703.506 43.4182L705.557 31.9436L702.998 31.4861ZM749.492 55.0059L748.212 54.7799L748.21 54.7921L749.492 55.0059ZM743.779 46.1191L744.319 44.9365L744.29 44.9234L744.261 44.9117L743.779 46.1191ZM734.355 42.3594L733.826 43.5465L733.849 43.5571L733.874 43.5668L734.355 42.3594ZM718.779 22.1934L720.077 22.2772L720.077 22.2678L718.779 22.1934ZM722.686 11.6465L723.712 12.4439L722.686 11.6465ZM732.695 4.46875L733.18 5.67516L733.188 5.67196L732.695 4.46875ZM746.611 1.92969L746.636 0.629898L746.628 0.629799L746.611 1.92969ZM763.262 8.08203L762.372 9.02998L762.376 9.03362L763.262 8.08203ZM769.512 23.9512V25.2512H770.799L770.812 23.9639L769.512 23.9512ZM755.254 23.9512L753.956 23.8856L753.887 25.2512H755.254V23.9512ZM753.105 16.4316L752.126 17.2865L752.135 17.2964L753.105 16.4316ZM745.781 13.6484L745.755 14.9482L745.756 14.9482L745.781 13.6484ZM737.285 15.8945L737.982 16.992L737.993 16.9852L737.285 15.8945ZM732.988 22.2422L734.269 22.4654L734.27 22.4584L732.988 22.2422ZM740.117 30.6895L739.647 31.9015L739.657 31.9052L740.117 30.6895ZM746.562 33.1309L747.106 31.9501L747.065 31.9312L747.023 31.9152L746.562 33.1309ZM750.273 34.8398L750.85 33.6747L750.834 33.6667L750.817 33.659L750.273 34.8398ZM763.75 54.8594L762.453 54.7661L762.453 54.7689L763.75 54.8594ZM759.697 65.748L758.676 64.9439L758.675 64.9454L759.697 65.748ZM749.932 72.7305L749.455 71.5208L749.452 71.5221L749.932 72.7305ZM736.357 75.0254L736.383 73.7256L736.383 73.7256L736.357 75.0254ZM722.881 71.8516L722.288 73.0085L722.881 71.8516ZM713.896 63.3066L715.032 62.6736L715.03 62.6698L713.896 63.3066ZM711.211 51.5879L711.215 50.2879L709.949 50.2836L709.911 51.5494L711.211 51.5879ZM725.518 51.6367L726.815 51.7134L726.896 50.3414L725.522 50.3367L725.518 51.6367ZM736.895 63.4043L736.873 64.7041L736.884 64.7043H736.895V63.4043ZM745.488 61.1094L744.756 60.035L745.488 61.1094ZM750.772 55.2318C751.164 53.0136 750.82 50.9651 749.67 49.1759C748.539 47.4168 746.705 46.0255 744.319 44.9365L743.239 47.3017C745.346 48.2636 746.71 49.3788 747.483 50.5819C748.237 51.755 748.504 53.1245 748.212 54.7799L750.772 55.2318ZM744.261 44.9117L734.837 41.1519L733.874 43.5668L743.298 47.3266L744.261 44.9117ZM734.885 41.1723C729.537 38.7846 725.709 35.9967 723.287 32.8611C720.887 29.7533 719.82 26.2456 720.077 22.2772L717.482 22.1095C717.185 26.7024 718.438 30.8363 721.229 34.4504C724 38.0368 728.236 41.0513 733.826 43.5465L734.885 41.1723ZM720.077 22.2678C720.29 18.5518 721.502 15.29 723.712 12.4439L721.659 10.8491C719.116 14.1228 717.724 17.8922 717.481 22.1189L720.077 22.2678ZM723.712 12.4439C725.922 9.59856 729.055 7.33135 733.18 5.67514L732.211 3.26236C727.742 5.05667 724.202 7.57462 721.659 10.8491L723.712 12.4439ZM733.188 5.67196C737.311 3.98493 741.776 3.16659 746.594 3.22958L746.628 0.629799C741.486 0.562582 736.673 1.43694 732.203 3.26554L733.188 5.67196ZM746.587 3.22945C753.196 3.35475 758.417 5.31837 762.372 9.02997L764.151 7.13409C759.643 2.90298 753.764 0.765045 746.636 0.629921L746.587 3.22945ZM762.376 9.03362C766.299 12.6854 768.274 17.6034 768.212 23.9384L770.812 23.9639C770.88 17.0177 768.688 11.3562 764.147 7.13044L762.376 9.03362ZM769.512 22.6512H755.254V25.2512H769.512V22.6512ZM756.552 24.0167C756.726 20.5741 755.968 17.6904 754.076 15.5669L752.135 17.2964C753.433 18.7536 754.107 20.8829 753.956 23.8856L756.552 24.0167ZM754.085 15.5768C752.198 13.4144 749.343 12.418 745.807 12.3487L745.756 14.9482C748.86 15.0091 750.888 15.8682 752.126 17.2864L754.085 15.5768ZM745.807 12.3487C742.328 12.2791 739.233 13.0815 736.578 14.8039L737.993 16.9852C740.155 15.5825 742.724 14.8876 745.755 14.9482L745.807 12.3487ZM736.588 14.7972C733.883 16.5154 732.226 18.944 731.706 22.026L734.27 22.4584C734.662 20.1367 735.87 18.3336 737.982 16.9919L736.588 14.7972ZM731.708 22.0189C731.331 24.1819 731.883 26.1595 733.313 27.8536C734.699 29.496 736.862 30.8213 739.647 31.9015L740.587 29.4774C738.001 28.4743 736.29 27.35 735.3 26.1767C734.354 25.055 734.028 23.8506 734.269 22.4654L731.708 22.0189ZM739.657 31.9052L746.102 34.3466L747.023 31.9152L740.578 29.4737L739.657 31.9052ZM746.019 34.3117L749.73 36.0206L750.817 33.659L747.106 31.9501L746.019 34.3117ZM749.697 36.005C754.361 38.3132 757.682 41.0382 759.766 44.1351C761.838 47.213 762.743 50.737 762.453 54.7661L765.047 54.9527C765.375 50.388 764.343 46.2785 761.923 42.6832C759.516 39.107 755.789 36.1191 750.85 33.6747L749.697 36.005ZM762.453 54.7689C762.177 58.7301 760.91 62.1056 758.676 64.9439L760.719 66.5522C763.302 63.2707 764.737 59.3871 765.047 54.9499L762.453 54.7689ZM758.675 64.9454C756.462 67.7644 753.408 69.9646 749.455 71.5208L750.408 73.9401C754.723 72.2411 758.18 69.7864 760.72 66.5507L758.675 64.9454ZM749.452 71.5221C745.53 73.0787 741.179 73.8203 736.383 73.7256L736.332 76.3251C741.432 76.4258 746.131 75.6375 750.411 73.9388L749.452 71.5221ZM736.383 73.7256C731.507 73.6313 727.213 72.6108 723.474 70.6946L722.288 73.0085C726.426 75.1288 731.117 76.2242 736.332 76.3251L736.383 73.7256ZM723.474 70.6946C719.751 68.7873 716.951 66.1158 715.032 62.6736L712.761 63.9397C714.943 67.8542 718.133 70.8794 722.288 73.0085L723.474 70.6946ZM715.03 62.6698C713.239 59.4819 712.386 55.8143 712.51 51.6264L709.911 51.5494C709.775 56.1506 710.713 60.2955 712.763 63.9435L715.03 62.6698ZM711.206 52.8879L725.513 52.9367L725.522 50.3367L711.215 50.2879L711.206 52.8879ZM724.22 51.5601C723.98 55.6258 724.846 58.9517 727.085 61.2683C729.315 63.5743 732.671 64.6361 736.873 64.7041L736.916 62.1045C733.078 62.0423 730.518 61.0777 728.955 59.4612C727.402 57.8553 726.6 55.3625 726.815 51.7134L724.22 51.5601ZM736.895 64.7043C740.565 64.7043 743.705 63.8971 746.22 62.1838L744.756 60.035C742.78 61.3815 740.19 62.1043 736.895 62.1043V64.7043ZM746.22 62.1838C748.741 60.4666 750.289 58.1299 750.774 55.2196L748.21 54.7921C747.849 56.9599 746.728 58.6923 744.756 60.035L746.22 62.1838ZM789.238 48.9512L789.243 47.6512L788.147 47.6472L787.958 48.7265L789.238 48.9512ZM784.844 74V75.3H785.936L786.124 74.2246L784.844 74ZM770.537 74L769.256 73.7774L768.992 75.3H770.537V74ZM782.891 2.90625L782.893 1.60625L781.797 1.6041L781.61 2.68369L782.891 2.90625ZM807.793 2.95508L807.79 4.25508H807.793V2.95508ZM825.908 9.35156L826.814 8.41861L825.908 9.35156ZM831.67 26.0508L830.374 25.9464L830.374 25.9539L831.67 26.0508ZM822.93 42.75L822.127 41.7276L822.124 41.73L822.93 42.75ZM802.715 49L802.71 50.3H802.715V49ZM791.24 37.0859L789.96 36.8618L789.695 38.3733L791.23 38.3859L791.24 37.0859ZM803.154 37.1836L803.144 38.4836H803.154V37.1836ZM817.266 26.1484L815.979 25.9629L817.266 26.1484ZM815.605 18.043L814.577 18.8388L814.586 18.849L815.605 18.043ZM808.623 14.8203L808.678 13.5215L808.653 13.5204L808.628 13.5203L808.623 14.8203ZM795.146 14.7715L795.151 13.4715L794.055 13.4675L793.866 14.5473L795.146 14.7715ZM787.958 48.7265L783.563 73.7754L786.124 74.2246L790.519 49.1758L787.958 48.7265ZM784.844 72.7H770.537V75.3H784.844V72.7ZM771.818 74.2226L784.171 3.12881L781.61 2.68369L769.256 73.7774L771.818 74.2226ZM782.888 4.20625L807.79 4.25508L807.796 1.65508L782.893 1.60625L782.888 4.20625ZM807.793 4.25508C815.228 4.25508 820.909 6.31179 825.003 10.2845L826.814 8.41861C822.118 3.86269 815.723 1.65508 807.793 1.65508V4.25508ZM825.003 10.2845C829.082 14.2427 830.901 19.41 830.374 25.9464L832.966 26.1552C833.546 18.9546 831.524 12.9891 826.814 8.41861L825.003 10.2845ZM830.374 25.9539C829.879 32.5705 827.134 37.7953 822.127 41.7276L823.733 43.7724C829.337 39.3714 832.419 33.4633 832.966 26.1477L830.374 25.9539ZM822.124 41.73C817.127 45.678 810.692 47.7 802.715 47.7V50.3C811.144 50.3 818.185 48.1553 823.736 43.77L822.124 41.73ZM802.72 47.7L789.243 47.6512L789.234 50.2512L802.71 50.3L802.72 47.7ZM791.23 38.3859L803.144 38.4836L803.165 35.8836L791.251 35.786L791.23 38.3859ZM803.154 38.4836C807.228 38.4836 810.716 37.4261 813.525 35.2291L811.924 33.181C809.655 34.9554 806.763 35.8836 803.154 35.8836V38.4836ZM813.525 35.2291C816.346 33.0235 818.019 30.0287 818.552 26.334L815.979 25.9629C815.535 29.039 814.182 31.4153 811.924 33.181L813.525 35.2291ZM818.552 26.334C819.074 22.7169 818.508 19.6186 816.625 17.2369L814.586 18.849C815.893 20.5038 816.434 22.8092 815.979 25.9629L818.552 26.334ZM816.633 17.2471C814.787 14.8619 812.064 13.664 808.678 13.5215L808.568 16.1192C811.367 16.237 813.299 17.1876 814.578 18.8388L816.633 17.2471ZM808.628 13.5203L795.151 13.4715L795.142 16.0715L808.618 16.1203L808.628 13.5203ZM793.866 14.5473L789.96 36.8618L792.521 37.3101L796.427 14.9956L793.866 14.5473ZM866.729 59.3516L868.013 59.1545L867.844 58.0516H866.729V59.3516ZM841.924 59.3516V58.0516H841.12L840.761 58.7702L841.924 59.3516ZM834.6 74V75.3H835.403L835.762 74.5814L834.6 74ZM818.828 74L817.682 73.3873L816.66 75.3H818.828V74ZM856.816 2.90625V1.60625H856.037L855.67 2.29359L856.816 2.90625ZM870.049 2.90625L871.326 2.66329L871.125 1.60625H870.049V2.90625ZM883.574 74V75.3H885.145L884.851 73.757L883.574 74ZM868.975 74L867.69 74.197L867.859 75.3H868.975V74ZM847.783 47.4863L846.619 46.9084L845.687 48.7863H847.783V47.4863ZM864.922 47.4863V48.7863H866.433L866.207 47.2919L864.922 47.4863ZM860.918 21.0215L862.203 20.827L861.587 16.7502L859.753 20.4435L860.918 21.0215ZM866.729 58.0516H841.924V60.6516H866.729V58.0516ZM840.761 58.7702L833.437 73.4186L835.762 74.5814L843.087 59.9329L840.761 58.7702ZM834.6 72.7H818.828V75.3H834.6V72.7ZM819.975 74.6127L857.963 3.51891L855.67 2.29359L817.682 73.3873L819.975 74.6127ZM856.816 4.20625H870.049V1.60625H856.816V4.20625ZM868.772 3.14921L882.297 74.243L884.851 73.757L871.326 2.66329L868.772 3.14921ZM883.574 72.7H868.975V75.3H883.574V72.7ZM870.26 73.803L868.013 59.1545L865.444 59.5486L867.69 74.197L870.26 73.803ZM847.783 48.7863H864.922V46.1863H847.783V48.7863ZM866.207 47.2919L862.203 20.827L859.633 21.216L863.636 47.6808L866.207 47.2919ZM859.753 20.4435L846.619 46.9084L848.948 48.0643L862.082 21.5994L859.753 20.4435ZM947.637 50.2695L948.929 50.415L949.092 48.9595L947.628 48.9696L947.637 50.2695ZM942.607 63.3555L943.652 64.1297L943.655 64.1254L942.607 63.3555ZM931.67 72.0957L932.203 73.2815L932.21 73.2783L931.67 72.0957ZM917.119 74.9766L917.092 76.2763L917.095 76.2763L917.119 74.9766ZM904.863 71.7539L904.196 72.8696L904.204 72.8742L904.863 71.7539ZM896.611 62.7695L895.45 63.3548L895.456 63.3663L896.611 62.7695ZM893.242 49.1953L894.541 49.1292L894.54 49.1214L893.242 49.1953ZM894.463 34.2539L893.184 34.0232L893.182 34.03L894.463 34.2539ZM900.127 18.3848L899.008 17.7229L899.005 17.7288L900.127 18.3848ZM909.844 7.39844L909.087 6.34146L909.083 6.34431L909.844 7.39844ZM927.91 1.92969L927.885 3.22945L927.887 3.22948L927.91 1.92969ZM945.391 8.76562L944.458 9.67107L944.465 9.67798L945.391 8.76562ZM952.52 27.125L952.515 28.425L953.892 28.4297L953.818 27.055L952.52 27.125ZM938.262 27.0762H936.962V28.3717L938.257 28.3762L938.262 27.0762ZM927.227 13.8926L927.271 12.5933L927.27 12.5933L927.227 13.8926ZM915.166 19.1172L914.183 18.2661L914.179 18.2712L915.166 19.1172ZM908.867 35.084L907.582 34.8868L907.582 34.8872L908.867 35.084ZM907.5 50.3672L908.799 50.318L908.799 50.3172L907.5 50.3672ZM910.381 59.8887L909.394 60.7347L909.401 60.7425L910.381 59.8887ZM917.754 63.0625L917.802 61.7634L917.794 61.7631L917.754 63.0625ZM928.203 59.9863L929.045 60.9769L929.046 60.9759L928.203 59.9863ZM933.428 50.3672L933.419 49.0672L932.364 49.0745L932.154 50.1084L933.428 50.3672ZM920.879 73.6094L922.12 73.9971L922.655 72.2837L920.86 72.3095L920.879 73.6094ZM919.902 76.7344L918.661 76.3466L918.235 77.7129L919.636 78.0067L919.902 76.7344ZM924.443 79.4688L923.389 80.229L923.392 80.2334L924.443 79.4688ZM907.842 96.7539L906.543 96.6928L906.477 98.0923L907.878 98.0534L907.842 96.7539ZM908.232 88.4531L908.174 87.1544L906.99 87.2078L906.934 88.392L908.232 88.4531ZM914.482 84.1562L915.756 84.4171L915.758 84.4072L914.482 84.1562ZM910.283 80.8359L910.172 82.1312L910.181 82.132L910.191 82.1326L910.283 80.8359ZM908.574 80.6895L907.33 80.3127L906.865 81.8477L908.463 81.9847L908.574 80.6895ZM910.674 73.7559L910.655 72.456L909.705 72.4696L909.43 73.3791L910.674 73.7559ZM946.345 50.1241C945.816 54.8244 944.218 58.9688 941.56 62.5855L943.655 64.1254C946.595 60.1249 948.351 55.5454 948.929 50.415L946.345 50.1241ZM941.563 62.5812C938.901 66.1717 935.433 68.9488 931.13 70.9131L932.21 73.2783C936.891 71.141 940.715 68.0913 943.652 64.1297L941.563 62.5812ZM931.137 70.9099C926.83 72.845 922.171 73.7711 917.143 73.6768L917.095 76.2763C922.484 76.3774 927.525 75.3829 932.203 73.2815L931.137 70.9099ZM917.146 73.6768C912.646 73.5831 908.785 72.5545 905.523 70.6337L904.204 72.8742C907.908 75.0549 912.218 76.1747 917.092 76.2763L917.146 73.6768ZM905.531 70.6382C902.272 68.6895 899.683 65.8827 897.766 62.1728L895.456 63.3663C897.576 67.4689 900.488 70.6517 904.196 72.8696L905.531 70.6382ZM897.772 62.1843C895.88 58.4309 894.793 54.0878 894.541 49.1292L891.944 49.2615C892.212 54.5241 893.371 59.2305 895.451 63.3547L897.772 62.1843ZM894.54 49.1214C894.32 45.2538 894.711 40.3809 895.743 34.4778L893.182 34.03C892.131 40.041 891.709 45.1291 891.944 49.2692L894.54 49.1214ZM895.742 34.4846C896.793 28.6581 898.634 23.5157 901.249 19.0408L899.005 17.7288C896.217 22.4986 894.281 27.9357 893.184 34.0232L895.742 34.4846ZM901.246 19.0466C903.904 14.5533 907.028 11.034 910.605 8.45256L909.083 6.34431C905.173 9.16656 901.819 12.9714 899.008 17.7229L901.246 19.0466ZM910.601 8.45541C915.636 4.84992 921.381 3.10437 927.885 3.22945L927.935 0.629929C920.898 0.494589 914.599 2.39488 909.087 6.34147L910.601 8.45541ZM927.887 3.22948C934.971 3.35487 940.445 5.53707 944.458 9.67104L946.323 7.86021C941.742 3.14001 935.562 0.764923 927.933 0.62989L927.887 3.22948ZM944.465 9.67798C948.516 13.79 950.81 19.5774 951.221 27.195L953.818 27.055C953.382 18.9825 950.924 12.5303 946.317 7.85327L944.465 9.67798ZM952.524 25.825L938.266 25.7762L938.257 28.3762L952.515 28.425L952.524 25.825ZM939.562 27.0762C939.562 22.4574 938.649 18.7945 936.562 16.3656L934.59 18.0602C936.084 19.798 936.962 22.7106 936.962 27.0762H939.562ZM936.562 16.3656C934.456 13.9153 931.269 12.7312 927.271 12.5933L927.182 15.1918C930.736 15.3144 933.115 16.3438 934.59 18.0602L936.562 16.3656ZM927.27 12.5933C922.001 12.4177 917.602 14.3193 914.183 18.2661L916.149 19.9683C919.046 16.6234 922.687 15.042 927.183 15.1919L927.27 12.5933ZM914.179 18.2712C910.838 22.1689 908.677 27.755 907.582 34.8868L910.152 35.2812C911.206 28.4156 913.244 23.3572 916.153 19.9632L914.179 18.2712ZM907.582 34.8872C906.538 41.7068 906.066 46.9024 906.201 50.4172L908.799 50.3172C908.674 47.0612 909.113 42.0679 910.152 35.2807L907.582 34.8872ZM906.201 50.4164C906.369 54.8443 907.361 58.3632 909.394 60.7347L911.368 59.0426C909.885 57.3126 908.957 54.4838 908.799 50.318L906.201 50.4164ZM909.401 60.7425C911.439 63.083 914.266 64.2552 917.714 64.3619L917.794 61.7631C914.927 61.6745 912.838 60.7308 911.361 59.0349L909.401 60.7425ZM917.705 64.3616C922.299 64.533 926.13 63.4545 929.045 60.9769L927.361 58.9958C925.068 60.9453 921.933 61.9175 917.802 61.7634L917.705 64.3616ZM929.046 60.9759C931.951 58.5015 933.811 55.011 934.702 50.626L932.154 50.1084C931.352 54.0567 929.729 56.9789 927.36 58.9967L929.046 60.9759ZM933.437 51.6672L947.646 51.5695L947.628 48.9696L933.419 49.0672L933.437 51.6672ZM919.638 73.2216L918.661 76.3466L921.143 77.1221L922.12 73.9971L919.638 73.2216ZM919.636 78.0067C921.402 78.3771 922.605 79.1418 923.389 80.229L925.498 78.7085C924.263 76.9962 922.439 75.938 920.169 75.462L919.636 78.0067ZM923.392 80.2334C924.25 81.4132 924.706 82.8611 924.706 84.6445H927.306C927.306 82.3915 926.72 80.3889 925.495 78.7041L923.392 80.2334ZM924.706 84.6445C924.706 87.9516 923.362 90.4599 920.597 92.3031L922.039 94.4664C925.525 92.143 927.306 88.8244 927.306 84.6445H924.706ZM920.597 92.3031C917.76 94.1949 913.547 95.2949 907.806 95.4544L907.878 98.0534C913.856 97.8874 918.627 96.7413 922.039 94.4664L920.597 92.3031ZM909.14 96.815L909.531 88.5142L906.934 88.392L906.543 96.6928L909.14 96.815ZM908.291 89.7518C910.241 89.664 911.931 89.2291 913.241 88.3281C914.587 87.4033 915.419 86.0647 915.756 84.4171L913.209 83.8954C912.993 84.9497 912.507 85.6781 911.768 86.1856C910.996 86.7169 909.837 87.0795 908.174 87.1544L908.291 89.7518ZM915.758 84.4072C915.888 83.7454 915.885 83.0718 915.676 82.4285C915.462 81.7752 915.062 81.2365 914.532 80.8172C913.521 80.0178 912.051 79.6589 910.376 79.5392L910.191 82.1326C911.705 82.2408 912.53 82.5492 912.919 82.8567C913.089 82.9907 913.165 83.1153 913.204 83.2351C913.246 83.3649 913.272 83.5743 913.207 83.9053L915.758 84.4072ZM910.394 79.5407L908.685 79.3942L908.463 81.9847L910.172 82.1312L910.394 79.5407ZM909.818 81.0662L911.918 74.1326L909.43 73.3791L907.33 80.3127L909.818 81.0662ZM910.693 75.0557L920.898 74.9092L920.86 72.3095L910.655 72.456L910.693 75.0557ZM982.207 74.9766L982.18 76.2763L982.182 76.2763L982.207 74.9766ZM969.707 71.6562L969.038 72.7711L969.05 72.7781L969.707 71.6562ZM961.162 62.4277L960.007 63.024L960.013 63.0351L961.162 62.4277ZM957.549 48.5605L958.846 48.4795L958.846 48.4735L957.549 48.5605ZM978.154 5.20117L977.566 4.04179L977.563 4.04353L978.154 5.20117ZM992.705 1.92969L992.732 0.629957L992.729 0.629915L992.705 1.92969ZM1005.25 5.34766L1004.58 6.45794L1004.59 6.4624L1005.25 5.34766ZM1013.7 14.6738L1012.54 15.2589L1012.54 15.2627L1013.7 14.6738ZM1017.22 28.4434L1018.51 28.3696V28.3694L1017.22 28.4434ZM996.514 71.8027L995.932 70.64L995.929 70.6417L996.514 71.8027ZM1002.47 36.5L1003.76 36.6671L1003.76 36.6382L1003.77 36.6091L1002.47 36.5ZM1002.86 31.8613L1004.16 31.9704L1004.16 31.9524L1004.16 31.9342L1002.86 31.8613ZM1000.52 18.6777L999.412 19.3624L999.418 19.371L1000.52 18.6777ZM992.021 13.9902L992.066 12.691L992.064 12.6909L992.021 13.9902ZM977.812 21.9004L976.719 21.1974L976.716 21.202L977.812 21.9004ZM971.904 44.8496L973.202 44.9229L973.203 44.9098L971.904 44.8496ZM974.199 58.1797L973.081 58.8434L973.084 58.8485L974.199 58.1797ZM982.842 63.0137L982.9 61.715L982.892 61.7146L982.885 61.7144L982.842 63.0137ZM995.537 57.0566L996.553 57.8678L996.556 57.864L995.537 57.0566ZM1002.13 39.1367L1003.42 39.3107L1003.42 39.3038L1002.13 39.1367ZM982.234 73.6768C977.707 73.5832 973.762 72.5246 970.364 70.5344L969.05 72.7781C972.878 75.0197 977.267 76.1746 982.18 76.2763L982.234 73.6768ZM970.376 70.5415C967.016 68.5254 964.326 65.6328 962.311 61.8203L960.013 63.0351C962.23 67.2305 965.237 70.4902 969.038 72.771L970.376 70.5415ZM962.317 61.8315C960.328 57.9771 959.162 53.5347 958.846 48.4795L956.251 48.6416C956.586 54.0031 957.83 58.8054 960.007 63.024L962.317 61.8315ZM958.846 48.4735C958.498 43.2891 959.049 37.7282 960.52 31.7828L957.996 31.1586C956.471 37.3226 955.883 43.1549 956.252 48.6475L958.846 48.4735ZM960.52 31.7828C961.981 25.8737 964.325 20.7075 967.538 16.2659L965.431 14.742C962.004 19.48 959.529 24.9584 957.996 31.1586L960.52 31.7828ZM967.538 16.2659C970.753 11.8205 974.492 8.53229 978.746 6.35881L977.563 4.04353C972.897 6.42735 968.856 10.0076 965.431 14.742L967.538 16.2659ZM978.742 6.36055C983.038 4.18143 987.677 3.13565 992.681 3.22946L992.729 0.629915C987.316 0.528416 982.255 1.66362 977.566 4.0418L978.742 6.36055ZM992.679 3.22942C997.267 3.32306 1001.22 4.41243 1004.58 6.45792L1005.93 4.23739C1002.13 1.9209 997.713 0.731625 992.732 0.629959L992.679 3.22942ZM1004.59 6.4624C1007.94 8.47289 1010.59 11.3886 1012.54 15.2589L1014.86 14.0887C1012.71 9.82099 1009.73 6.51929 1005.92 4.23292L1004.59 6.4624ZM1012.54 15.2627C1014.5 19.1183 1015.63 23.5288 1015.92 28.5173L1018.51 28.3694C1018.21 23.0715 1017 18.3023 1014.86 14.085L1012.54 15.2627ZM1015.92 28.5171C1016.24 34.1007 1015.63 39.858 1014.1 45.7943L1016.62 46.444C1018.21 40.2709 1018.85 34.2443 1018.51 28.3696L1015.92 28.5171ZM1014.1 45.7943C1012.58 51.7081 1010.22 56.7913 1007.04 61.0667L1009.13 62.6169C1012.53 58.0382 1015.02 52.6396 1016.62 46.444L1014.1 45.7943ZM1007.04 61.0667C1003.86 65.349 1000.16 68.5276 995.932 70.64L997.095 72.9655C1001.72 70.6508 1005.73 67.1887 1009.13 62.6169L1007.04 61.0667ZM995.929 70.6417C991.732 72.7557 987.173 73.7706 982.232 73.6768L982.182 76.2763C987.527 76.3778 992.506 75.2768 997.099 72.9638L995.929 70.6417ZM1003.77 36.6091L1004.16 31.9704L1001.57 31.7522L1001.18 36.3909L1003.77 36.6091ZM1004.16 31.9342C1004.49 26.0273 1003.72 21.3123 1001.62 17.9844L999.418 19.371C1001.1 22.0328 1001.88 26.1068 1001.56 31.7884L1004.16 31.9342ZM1001.62 17.9931C999.517 14.5947 996.266 12.8346 992.066 12.691L991.977 15.2895C995.394 15.4063 997.807 16.7711 999.412 19.3624L1001.62 17.9931ZM992.064 12.6909C985.602 12.4791 980.455 15.386 976.719 21.1974L978.906 22.6034C982.201 17.4773 986.527 15.1108 991.979 15.2895L992.064 12.6909ZM976.716 21.202C973.064 26.9365 971.067 34.8401 970.606 44.7894L973.203 44.9098C973.653 35.1977 975.595 27.8018 978.909 22.5988L976.716 21.202ZM970.606 44.7763C970.274 50.6568 971.037 55.4006 973.081 58.8434L975.317 57.516C973.65 54.7088 972.883 50.5658 973.202 44.9229L970.606 44.7763ZM973.084 58.8485C975.189 62.3556 978.495 64.1695 982.798 64.313L982.885 61.7144C979.376 61.5974 976.921 60.1887 975.314 57.5108L973.084 58.8485ZM982.784 64.3124C988.334 64.5598 992.956 62.3726 996.553 57.8678L994.521 56.2455C991.412 60.1391 987.571 61.9232 982.9 61.715L982.784 64.3124ZM996.556 57.864C1000.1 53.3855 1002.36 47.1606 1003.42 39.3107L1000.84 38.9628C999.817 46.5425 997.676 52.2642 994.518 56.2493L996.556 57.864ZM1003.42 39.3038L1003.76 36.6671L1001.18 36.3329L1000.84 38.9696L1003.42 39.3038Z" fill="white"/>
</svg>
