<svg width="1016" height="96" viewBox="0 0 1016 96" fill="none" xmlns="http://www.w3.org/2000/svg">
<path d="M22.5898 55.2266L46.5156 1.90625H62.9219L27.8145 73H12.873L0.0800781 1.90625H15.4609L22.5898 55.2266ZM73.2246 73H58.918L71.2227 1.90625H85.5293L73.2246 73ZM129.475 58.3516H104.67L97.3457 73H81.5742L119.562 1.90625H132.795L146.32 73H131.721L129.475 58.3516ZM110.529 46.4863H127.668L123.664 20.0215L110.529 46.4863ZM193.781 1.90625H208.088L199.738 51.125C199.152 55.6172 197.655 59.6374 195.246 63.1855C192.837 66.7337 189.745 69.4518 185.969 71.3398C182.193 73.2279 178.042 74.123 173.518 74.0254C166.812 73.8952 161.636 71.9095 157.99 68.0684C154.344 64.2272 152.619 58.8561 152.814 51.9551L167.219 52.0039C166.73 58.7096 169.09 62.1113 174.299 62.209C177.131 62.3066 179.54 61.3626 181.525 59.377C183.511 57.3913 184.797 54.6406 185.383 51.125L193.781 1.90625ZM255.109 42.1895H227.863L224.543 61.2324H256.574L254.523 73H208.186L220.539 1.90625H266.779L264.68 13.7715H232.795L229.816 30.7148H257.16L255.109 42.1895ZM306.672 47.9512L302.277 73H287.971L300.324 1.90625L325.227 1.95508C332.909 1.95508 338.947 4.08724 343.342 8.35156C347.736 12.6159 349.657 18.1823 349.104 25.0508C348.583 32.0169 345.669 37.5833 340.363 41.75C335.09 45.9167 328.352 48 320.148 48L306.672 47.9512ZM308.674 36.0859L320.588 36.1836C324.429 36.1836 327.619 35.1908 330.158 33.2051C332.697 31.2194 334.211 28.5339 334.699 25.1484C335.188 21.763 334.634 19.0612 333.039 17.043C331.477 15.0247 329.149 13.9505 326.057 13.8203L312.58 13.7715L308.674 36.0859ZM384.162 58.3516H359.357L352.033 73H336.262L374.25 1.90625H387.482L401.008 73H386.408L384.162 58.3516ZM365.217 46.4863H382.355L378.352 20.0215L365.217 46.4863ZM438.654 46.9746H427.033L422.492 73H408.186L420.539 1.90625L444.074 1.95508C451.952 1.95508 458.007 3.81055 462.238 7.52148C466.503 11.2324 468.391 16.3919 467.902 23C467.219 32.7656 462.01 39.5527 452.277 43.3613L462.287 72.2188V73H447.053L438.654 46.9746ZM429.084 35.1094L439.729 35.207C443.505 35.1419 446.613 34.1328 449.055 32.1797C451.529 30.194 453.01 27.5085 453.498 24.123C453.954 20.9655 453.449 18.4915 451.984 16.7012C450.52 14.9108 448.192 13.9505 445.002 13.8203L432.795 13.7715L429.084 35.1094ZM512.385 58.3516H487.58L480.256 73H464.484L502.473 1.90625H515.705L529.23 73H514.631L512.385 58.3516ZM493.439 46.4863H510.578L506.574 20.0215L493.439 46.4863ZM589.68 73.9766C584.96 73.8789 580.793 72.7721 577.18 70.6562C573.599 68.5078 570.751 65.4316 568.635 61.4277C566.551 57.3913 565.347 52.7689 565.021 47.5605C564.663 42.222 565.233 36.5254 566.73 30.4707C568.228 24.416 570.637 19.0938 573.957 14.5039C577.277 9.91406 581.167 6.47982 585.627 4.20117C590.119 1.92253 594.969 0.832031 600.178 0.929688C604.963 1.02734 609.146 2.16667 612.727 4.34766C616.307 6.49609 619.123 9.60482 621.174 13.6738C623.225 17.7103 624.396 22.3001 624.689 27.4434C625.015 33.1725 624.396 39.0645 622.834 45.1191C621.271 51.1738 618.846 56.4147 615.559 60.8418C612.271 65.2689 608.413 68.5892 603.986 70.8027C599.592 73.0163 594.823 74.0742 589.68 73.9766ZM609.943 35.5L610.334 30.8613C610.66 25.0671 609.878 20.6725 607.99 17.6777C606.135 14.6829 603.303 13.1204 599.494 12.9902C593.537 12.7949 588.801 15.4316 585.285 20.9004C581.802 26.3691 579.833 34.0189 579.377 43.8496C579.051 49.6113 579.816 54.0547 581.672 57.1797C583.527 60.2721 586.408 61.8835 590.314 62.0137C595.425 62.2415 599.657 60.2559 603.01 56.0566C606.363 51.8249 608.56 45.8516 609.602 38.1367L609.943 35.5ZM700.227 42.1895H672.98L669.66 61.2324H701.691L699.641 73H653.303L665.656 1.90625H711.896L709.797 13.7715H677.912L674.934 30.7148H702.277L700.227 42.1895ZM747.492 54.0059C748.176 50.1322 746.271 47.1699 741.779 45.1191L732.355 41.3594C721.418 36.4766 716.226 29.7546 716.779 21.1934C717.007 17.222 718.309 13.7064 720.686 10.6465C723.062 7.58659 726.398 5.19401 730.695 3.46875C734.992 1.71094 739.631 0.864583 744.611 0.929688C751.48 1.0599 757.03 3.11068 761.262 7.08203C765.493 11.0208 767.577 16.3105 767.512 22.9512H753.254C753.417 19.7285 752.701 17.222 751.105 15.4316C749.543 13.6413 747.102 12.7135 743.781 12.6484C740.526 12.5833 737.694 13.332 735.285 14.8945C732.876 16.4245 731.444 18.5404 730.988 21.2422C730.37 24.7904 732.746 27.6061 738.117 29.6895L744.562 32.1309L748.273 33.8398C757.876 38.5924 762.368 45.2656 761.75 53.8594C761.457 58.0586 760.106 61.6882 757.697 64.748C755.321 67.7754 752.066 70.1029 747.932 71.7305C743.83 73.3581 739.305 74.123 734.357 74.0254C729.312 73.9277 724.82 72.8698 720.881 70.8516C716.942 68.8333 713.947 65.985 711.896 62.3066C709.976 58.8887 709.081 54.9824 709.211 50.5879L723.518 50.6367C723.062 58.3516 726.854 62.2741 734.895 62.4043C738.378 62.4043 741.242 61.6393 743.488 60.1094C745.734 58.5794 747.069 56.5449 747.492 54.0059ZM787.238 47.9512L782.844 73H768.537L780.891 1.90625L805.793 1.95508C813.475 1.95508 819.514 4.08724 823.908 8.35156C828.303 12.6159 830.223 18.1823 829.67 25.0508C829.149 32.0169 826.236 37.5833 820.93 41.75C815.656 45.9167 808.918 48 800.715 48L787.238 47.9512ZM789.24 36.0859L801.154 36.1836C804.995 36.1836 808.186 35.1908 810.725 33.2051C813.264 31.2194 814.777 28.5339 815.266 25.1484C815.754 21.763 815.201 19.0612 813.605 17.043C812.043 15.0247 809.715 13.9505 806.623 13.8203L793.146 13.7715L789.24 36.0859ZM864.729 58.3516H839.924L832.6 73H816.828L854.816 1.90625H868.049L881.574 73H866.975L864.729 58.3516ZM845.783 46.4863H862.922L858.918 20.0215L845.783 46.4863ZM945.637 49.2695C945.083 54.1849 943.407 58.5469 940.607 62.3555C937.808 66.1315 934.162 69.0449 929.67 71.0957C925.178 73.1139 920.327 74.0742 915.119 73.9766C910.432 73.8789 906.346 72.8047 902.863 70.7539C899.38 68.6706 896.63 65.6758 894.611 61.7695C892.626 57.8307 891.503 53.306 891.242 48.1953C891.014 44.1914 891.421 39.2109 892.463 33.2539C893.537 27.2969 895.425 22.0072 898.127 17.3848C900.861 12.7624 904.1 9.10026 907.844 6.39844C913.117 2.6224 919.139 0.799479 925.91 0.929688C933.267 1.0599 939.094 3.33854 943.391 7.76562C947.72 12.1602 950.096 18.2799 950.52 26.125L936.262 26.0762C936.262 21.584 935.367 18.2962 933.576 16.2129C931.786 14.1296 929.003 13.0228 925.227 12.8926C920.344 12.7298 916.324 14.4714 913.166 18.1172C910.041 21.763 907.941 27.0853 906.867 34.084C905.826 40.8874 905.37 45.9818 905.5 49.3672C905.663 53.6641 906.623 56.8379 908.381 58.8887C910.139 60.9069 912.596 61.9648 915.754 62.0625C920.116 62.2253 923.599 61.1999 926.203 58.9863C928.84 56.7402 930.581 53.5339 931.428 49.3672L945.637 49.2695ZM918.879 72.6094L917.902 75.7344C919.921 76.1576 921.434 77.069 922.443 78.4688C923.485 79.901 924.006 81.6263 924.006 83.6445C924.006 87.388 922.443 90.3014 919.318 92.3848C916.193 94.4681 911.701 95.5911 905.842 95.7539L906.232 87.4531C909.846 87.2904 911.929 85.8581 912.482 83.1562C912.873 81.1706 911.473 80.0638 908.283 79.8359L906.574 79.6895L908.674 72.7559L918.879 72.6094ZM980.207 73.9766C975.487 73.8789 971.32 72.7721 967.707 70.6562C964.126 68.5078 961.278 65.4316 959.162 61.4277C957.079 57.3913 955.874 52.7689 955.549 47.5605C955.191 42.222 955.76 36.5254 957.258 30.4707C958.755 24.416 961.164 19.0938 964.484 14.5039C967.805 9.91406 971.695 6.47982 976.154 4.20117C980.646 1.92253 985.497 0.832031 990.705 0.929688C995.49 1.02734 999.673 2.16667 1003.25 4.34766C1006.83 6.49609 1009.65 9.60482 1011.7 13.6738C1013.75 17.7103 1014.92 22.3001 1015.22 27.4434C1015.54 33.1725 1014.92 39.0645 1013.36 45.1191C1011.8 51.1738 1009.37 56.4147 1006.09 60.8418C1002.8 65.2689 998.941 68.5892 994.514 70.8027C990.119 73.0163 985.35 74.0742 980.207 73.9766ZM1000.47 35.5L1000.86 30.8613C1001.19 25.0671 1000.41 20.6725 998.518 17.6777C996.662 14.6829 993.83 13.1204 990.021 12.9902C984.064 12.7949 979.328 15.4316 975.812 20.9004C972.329 26.3691 970.36 34.0189 969.904 43.8496C969.579 49.6113 970.344 54.0547 972.199 57.1797C974.055 60.2721 976.936 61.8835 980.842 62.0137C985.952 62.2415 990.184 60.2559 993.537 56.0566C996.89 51.8249 999.087 45.8516 1000.13 38.1367L1000.47 35.5Z" fill="white"/>
</svg>
