<svg width="1019" height="98" viewBox="0 0 1019 98" fill="none" xmlns="http://www.w3.org/2000/svg">
<path d="M24.5898 56.2266L23.5987 56.3591L24.0642 59.8407L25.5022 56.636L24.5898 56.2266ZM48.5156 2.90625V1.90625H47.8683L47.6033 2.49686L48.5156 2.90625ZM64.9219 2.90625L65.8185 3.34902L66.531 1.90625H64.9219V2.90625ZM29.8145 74V75H30.4359L30.7111 74.4428L29.8145 74ZM14.873 74L13.8889 74.1771L14.0369 75H14.873V74ZM2.08008 2.90625V1.90625H0.884072L1.09589 3.08335L2.08008 2.90625ZM17.4609 2.90625L18.4521 2.77373L18.3361 1.90625H17.4609V2.90625ZM25.5022 56.636L49.428 3.31564L47.6033 2.49686L23.6775 55.8172L25.5022 56.636ZM48.5156 3.90625H64.9219V1.90625H48.5156V3.90625ZM64.0252 2.46348L28.9178 73.5572L30.7111 74.4428L65.8185 3.34902L64.0252 2.46348ZM29.8145 73H14.873V75H29.8145V73ZM15.8572 73.8229L3.06427 2.72915L1.09589 3.08335L13.8889 74.1771L15.8572 73.8229ZM2.08008 3.90625H17.4609V1.90625H2.08008V3.90625ZM16.4698 3.03877L23.5987 56.3591L25.581 56.094L18.4521 2.77373L16.4698 3.03877ZM75.2246 74V75H76.0664L76.21 74.1705L75.2246 74ZM60.918 74L59.9326 73.8295L59.73 75H60.918V74ZM73.2227 2.90625V1.90625H72.3809L72.2373 2.73571L73.2227 2.90625ZM87.5293 2.90625L88.5146 3.07679L88.7172 1.90625H87.5293V2.90625ZM75.2246 73H60.918V75H75.2246V73ZM61.9033 74.1705L74.208 3.07679L72.2373 2.73571L59.9326 73.8295L61.9033 74.1705ZM73.2227 3.90625H87.5293V1.90625H73.2227V3.90625ZM86.5439 2.73571L74.2393 73.8295L76.21 74.1705L88.5146 3.07679L86.5439 2.73571ZM131.475 59.3516L132.463 59.2L132.333 58.3516H131.475V59.3516ZM106.67 59.3516V58.3516H106.052L105.775 58.9044L106.67 59.3516ZM99.3457 74V75H99.9637L100.24 74.4472L99.3457 74ZM83.5742 74L82.6922 73.5287L81.9061 75H83.5742V74ZM121.562 2.90625V1.90625H120.963L120.681 2.43497L121.562 2.90625ZM134.795 2.90625L135.777 2.71935L135.623 1.90625H134.795V2.90625ZM148.32 74V75H149.529L149.303 73.8131L148.32 74ZM133.721 74L132.732 74.1516L132.862 75H133.721V74ZM112.529 47.4863L111.634 47.0418L110.917 48.4863H112.529V47.4863ZM129.668 47.4863V48.4863H130.831L130.657 47.3367L129.668 47.4863ZM125.664 21.0215L126.653 20.8719L126.178 17.7359L124.768 20.5769L125.664 21.0215ZM131.475 58.3516H106.67V60.3516H131.475V58.3516ZM105.775 58.9044L98.4513 73.5528L100.24 74.4472L107.564 59.7988L105.775 58.9044ZM99.3457 73H83.5742V75H99.3457V73ZM84.4562 74.4713L122.444 3.37753L120.681 2.43497L82.6922 73.5287L84.4562 74.4713ZM121.562 3.90625H134.795V1.90625H121.562V3.90625ZM133.813 3.09315L147.338 74.1869L149.303 73.8131L135.777 2.71935L133.813 3.09315ZM148.32 73H133.721V75H148.32V73ZM134.709 73.8484L132.463 59.2L130.486 59.5031L132.732 74.1516L134.709 73.8484ZM112.529 48.4863H129.668V46.4863H112.529V48.4863ZM130.657 47.3367L126.653 20.8719L124.675 21.1711L128.679 47.6359L130.657 47.3367ZM124.768 20.5769L111.634 47.0418L113.425 47.9309L126.56 21.4661L124.768 20.5769ZM195.781 2.90625V1.90625H194.937L194.796 2.73805L195.781 2.90625ZM210.088 2.90625L211.074 3.0735L211.272 1.90625H210.088V2.90625ZM201.738 52.125L200.752 51.9577L200.749 51.9766L200.747 51.9957L201.738 52.125ZM187.969 72.3398L187.522 71.4454L187.969 72.3398ZM175.518 75.0254L175.539 74.0256L175.537 74.0256L175.518 75.0254ZM154.814 52.9551L154.818 51.9551L153.842 51.9518L153.815 52.9268L154.814 52.9551ZM169.219 53.0039L170.216 53.0765L170.294 52.0075L169.222 52.0039L169.219 53.0039ZM176.299 63.209L176.333 62.2096L176.325 62.2093L176.318 62.2092L176.299 63.209ZM187.383 52.125L186.397 51.9568L186.396 51.9606L187.383 52.125ZM195.781 3.90625H210.088V1.90625H195.781V3.90625ZM209.102 2.739L200.752 51.9577L202.724 52.2923L211.074 3.0735L209.102 2.739ZM200.747 51.9957C200.18 56.3419 198.735 60.2123 196.419 63.6239L198.073 64.7472C200.575 61.0625 202.125 56.8925 202.73 52.2543L200.747 51.9957ZM196.419 63.6239C194.104 67.0328 191.142 69.6352 187.522 71.4454L188.416 73.2343C192.348 71.2684 195.57 68.4347 198.073 64.7472L196.419 63.6239ZM187.522 71.4454C183.901 73.2556 179.913 74.12 175.539 74.0256L175.496 76.0252C180.171 76.1261 184.484 75.2002 188.416 73.2343L187.522 71.4454ZM175.537 74.0256C169.024 73.8991 164.131 71.9786 160.716 68.3799L159.265 69.7568C163.141 73.8404 168.6 75.8913 175.498 76.0252L175.537 74.0256ZM160.716 68.3799C157.304 64.7852 155.624 59.7027 155.814 52.9834L153.815 52.9268C153.614 60.0096 155.385 65.6692 159.265 69.7568L160.716 68.3799ZM154.811 53.9551L169.215 54.0039L169.222 52.0039L154.818 51.9551L154.811 53.9551ZM168.221 52.9313C167.97 56.3801 168.431 59.1801 169.801 61.1545C171.211 63.187 173.447 64.1557 176.28 64.2088L176.318 62.2092C173.942 62.1646 172.394 61.3837 171.444 60.0144C170.454 58.5872 169.979 56.3335 170.216 53.0765L168.221 52.9313ZM176.264 64.2084C179.371 64.3155 182.049 63.2678 184.232 61.0841L182.818 59.6698C181.031 61.4575 178.891 62.2978 176.333 62.2096L176.264 64.2084ZM184.232 61.0841C186.401 58.9156 187.758 55.955 188.369 52.2894L186.396 51.9606C185.835 55.3262 184.621 57.8669 182.818 59.6698L184.232 61.0841ZM188.369 52.2932L196.767 3.07445L194.796 2.73805L186.397 51.9568L188.369 52.2932ZM257.109 43.1895V44.1895H257.947L258.094 43.3654L257.109 43.1895ZM229.863 43.1895V42.1895H229.023L228.878 43.0177L229.863 43.1895ZM226.543 62.2324L225.558 62.0607L225.354 63.2324H226.543V62.2324ZM258.574 62.2324L259.559 62.4041L259.764 61.2324H258.574V62.2324ZM256.523 74V75H257.364L257.509 74.1717L256.523 74ZM210.186 74L209.2 73.8288L208.997 75H210.186V74ZM222.539 2.90625V1.90625H221.698L221.554 2.73505L222.539 2.90625ZM268.779 2.90625L269.764 3.0805L269.972 1.90625H268.779V2.90625ZM266.68 14.7715V15.7715H267.518L267.664 14.9457L266.68 14.7715ZM234.795 14.7715V13.7715H233.955L233.81 14.5983L234.795 14.7715ZM231.816 31.7148L230.832 31.5417L230.625 32.7148H231.816V31.7148ZM259.16 31.7148L260.145 31.8908L260.355 30.7148H259.16V31.7148ZM257.109 42.1895H229.863V44.1895H257.109V42.1895ZM228.878 43.0177L225.558 62.0607L227.528 62.4042L230.848 43.3612L228.878 43.0177ZM226.543 63.2324H258.574V61.2324H226.543V63.2324ZM257.589 62.0607L255.538 73.8283L257.509 74.1717L259.559 62.4041L257.589 62.0607ZM256.523 73H210.186V75H256.523V73ZM211.171 74.1712L223.524 3.07745L221.554 2.73505L209.2 73.8288L211.171 74.1712ZM222.539 3.90625H268.779V1.90625H222.539V3.90625ZM267.795 2.732L265.695 14.5972L267.664 14.9457L269.764 3.0805L267.795 2.732ZM266.68 13.7715H234.795V15.7715H266.68V13.7715ZM233.81 14.5983L230.832 31.5417L232.801 31.888L235.78 14.9446L233.81 14.5983ZM231.816 32.7148H259.16V30.7148H231.816V32.7148ZM258.176 31.5389L256.125 43.0135L258.094 43.3654L260.145 31.8908L258.176 31.5389ZM308.672 48.9512L308.676 47.9512L307.833 47.9481L307.687 48.7784L308.672 48.9512ZM304.277 74V75H305.117L305.262 74.1728L304.277 74ZM289.971 74L288.985 73.8288L288.782 75H289.971V74ZM302.324 2.90625L302.326 1.90625L301.483 1.9046L301.339 2.73505L302.324 2.90625ZM327.227 2.95508L327.225 3.95508H327.227V2.95508ZM345.342 9.35156L346.038 8.6339L345.342 9.35156ZM351.104 26.0508L350.107 25.9705L350.106 25.9762L351.104 26.0508ZM342.363 42.75L341.746 41.9635L341.743 41.9654L342.363 42.75ZM322.148 49L322.145 50H322.148V49ZM310.674 37.0859L309.689 36.9135L309.485 38.0762L310.666 38.0859L310.674 37.0859ZM322.588 37.1836L322.58 38.1836H322.588V37.1836ZM336.699 26.1484L335.709 26.0057L336.699 26.1484ZM335.039 18.043L334.248 18.6552L334.255 18.663L335.039 18.043ZM328.057 14.8203L328.099 13.8212L328.079 13.8204L328.06 13.8203L328.057 14.8203ZM314.58 14.7715L314.584 13.7715L313.74 13.7684L313.595 14.5991L314.58 14.7715ZM307.687 48.7784L303.292 73.8272L305.262 74.1728L309.657 49.124L307.687 48.7784ZM304.277 73H289.971V75H304.277V73ZM290.956 74.1712L303.309 3.07745L301.339 2.73505L288.985 73.8288L290.956 74.1712ZM302.322 3.90625L327.225 3.95508L327.229 1.95508L302.326 1.90625L302.322 3.90625ZM327.227 3.95508C334.718 3.95508 340.482 6.0292 344.645 10.0692L346.038 8.6339C341.413 4.14528 335.099 1.95508 327.227 1.95508V3.95508ZM344.645 10.0692C348.797 14.098 350.64 19.3575 350.107 25.9705L352.1 26.1311C352.674 19.0071 350.675 13.1337 346.038 8.6339L344.645 10.0692ZM350.106 25.9762C349.606 32.6735 346.822 37.9772 341.746 41.9635L342.981 43.5365C348.517 39.1895 351.56 33.3603 352.101 26.1253L350.106 25.9762ZM341.743 41.9654C336.683 45.9639 330.178 48 322.148 48V50C330.525 50 337.497 47.8695 342.983 43.5346L341.743 41.9654ZM322.152 48L308.676 47.9512L308.668 49.9512L322.145 50L322.152 48ZM310.666 38.0859L322.58 38.1836L322.596 36.1836L310.682 36.086L310.666 38.0859ZM322.588 38.1836C326.608 38.1836 330.027 37.1411 332.774 34.9928L331.542 33.4174C329.211 35.2405 326.25 36.1836 322.588 36.1836V38.1836ZM332.774 34.9928C335.53 32.8379 337.166 29.9145 337.689 26.2912L335.709 26.0057C335.255 29.1532 333.865 31.6009 331.542 33.4174L332.774 34.9928ZM337.689 26.2912C338.203 22.7275 337.64 19.7207 335.824 17.4229L334.255 18.663C335.629 20.4017 336.172 22.7985 335.709 26.0057L337.689 26.2912ZM335.83 17.4308C334.049 15.1302 331.417 13.9609 328.099 13.8212L328.015 15.8194C330.881 15.9401 332.904 16.9193 334.248 18.6551L335.83 17.4308ZM328.06 13.8203L314.584 13.7715L314.576 15.7715L328.053 15.8203L328.06 13.8203ZM313.595 14.5991L309.689 36.9135L311.659 37.2584L315.565 14.9439L313.595 14.5991ZM386.162 59.3516L387.151 59.2L387.02 58.3516H386.162V59.3516ZM361.357 59.3516V58.3516H360.739L360.463 58.9044L361.357 59.3516ZM354.033 74V75H354.651L354.928 74.4472L354.033 74ZM338.262 74L337.38 73.5287L336.594 75H338.262V74ZM376.25 2.90625V1.90625H375.651L375.368 2.43497L376.25 2.90625ZM389.482 2.90625L390.465 2.71935L390.31 1.90625H389.482V2.90625ZM403.008 74V75H404.216L403.99 73.8131L403.008 74ZM388.408 74L387.42 74.1516L387.55 75H388.408V74ZM367.217 47.4863L366.321 47.0418L365.604 48.4863H367.217V47.4863ZM384.355 47.4863V48.4863H385.518L385.344 47.3367L384.355 47.4863ZM380.352 21.0215L381.34 20.8719L380.866 17.7359L379.456 20.5769L380.352 21.0215ZM386.162 58.3516H361.357V60.3516H386.162V58.3516ZM360.463 58.9044L353.139 73.5528L354.928 74.4472L362.252 59.7988L360.463 58.9044ZM354.033 73H338.262V75H354.033V73ZM339.144 74.4713L377.132 3.37753L375.368 2.43497L337.38 73.5287L339.144 74.4713ZM376.25 3.90625H389.482V1.90625H376.25V3.90625ZM388.5 3.09315L402.025 74.1869L403.99 73.8131L390.465 2.71935L388.5 3.09315ZM403.008 73H388.408V75H403.008V73ZM389.397 73.8484L387.151 59.2L385.174 59.5031L387.42 74.1516L389.397 73.8484ZM367.217 48.4863H384.355V46.4863H367.217V48.4863ZM385.344 47.3367L381.34 20.8719L379.363 21.1711L383.367 47.6359L385.344 47.3367ZM379.456 20.5769L366.321 47.0418L368.113 47.9309L381.247 21.4661L379.456 20.5769ZM440.654 47.9746L441.606 47.6675L441.382 46.9746H440.654V47.9746ZM429.033 47.9746V46.9746H428.193L428.048 47.8027L429.033 47.9746ZM424.492 74V75H425.333L425.477 74.1719L424.492 74ZM410.186 74L409.2 73.8288L408.997 75H410.186V74ZM422.539 2.90625L422.541 1.90625L421.698 1.9045L421.554 2.73505L422.539 2.90625ZM446.074 2.95508L446.072 3.95508H446.074V2.95508ZM464.238 8.52148L463.579 9.27335L463.582 9.27584L464.238 8.52148ZM469.902 24L468.905 23.9263L468.905 23.9302L469.902 24ZM454.277 44.3613L453.913 43.4301L453.017 43.7805L453.333 44.689L454.277 44.3613ZM464.287 73.2188H465.287V73.0502L465.232 72.891L464.287 73.2188ZM464.287 74V75H465.287V74H464.287ZM449.053 74L448.101 74.3071L448.325 75H449.053V74ZM431.084 36.1094L430.099 35.938L429.897 37.0985L431.075 37.1093L431.084 36.1094ZM441.729 36.207L441.719 37.207L441.733 37.2071L441.746 37.2069L441.729 36.207ZM451.055 33.1797L451.679 33.9606L451.681 33.9596L451.055 33.1797ZM455.498 25.123L454.508 24.9802V24.9803L455.498 25.123ZM447.002 14.8203L447.043 13.8211L447.024 13.8204L447.006 13.8203L447.002 14.8203ZM434.795 14.7715L434.799 13.7715L433.954 13.7681L433.81 14.6001L434.795 14.7715ZM440.654 46.9746H429.033V48.9746H440.654V46.9746ZM428.048 47.8027L423.507 73.8281L425.477 74.1719L430.018 48.1465L428.048 47.8027ZM424.492 73H410.186V75H424.492V73ZM411.171 74.1712L423.524 3.07745L421.554 2.73505L409.2 73.8288L411.171 74.1712ZM422.537 3.90625L446.072 3.95508L446.076 1.95508L422.541 1.90625L422.537 3.90625ZM446.074 3.95508C453.806 3.95508 459.591 5.77623 463.579 9.27334L464.898 7.76962C460.422 3.84487 454.098 1.95508 446.074 1.95508V3.95508ZM463.582 9.27584C467.566 12.7426 469.375 17.5712 468.905 23.9263L470.9 24.0737C471.407 17.2126 469.44 11.7222 464.895 7.76713L463.582 9.27584ZM468.905 23.9302C468.575 28.6462 467.158 32.5895 464.69 35.8058C462.219 39.0258 458.647 41.5775 453.913 43.4301L454.642 45.2926C459.64 43.3366 463.539 40.5904 466.277 37.0233C469.017 33.4525 470.546 29.1194 470.9 24.0698L468.905 23.9302ZM453.333 44.689L463.342 73.5465L465.232 72.891L455.222 44.0336L453.333 44.689ZM463.287 73.2188V74H465.287V73.2188H463.287ZM464.287 73H449.053V75H464.287V73ZM450.004 73.6929L441.606 47.6675L439.703 48.2817L448.101 74.3071L450.004 73.6929ZM431.075 37.1093L441.719 37.207L441.738 35.2071L431.093 35.1094L431.075 37.1093ZM441.746 37.2069C445.696 37.1388 449.032 36.0788 451.679 33.9606L450.43 32.3988C448.195 34.1869 445.314 35.1451 441.711 35.2072L441.746 37.2069ZM451.681 33.9596C454.368 31.8022 455.966 28.8806 456.488 25.2658L454.508 24.9803C454.053 28.1364 452.689 30.5858 450.429 32.3998L451.681 33.9596ZM456.488 25.2659C456.968 21.9397 456.46 19.1479 454.758 17.0679L453.21 18.3344C454.438 19.8352 454.94 21.9913 454.508 24.9802L456.488 25.2659ZM454.758 17.0679C453.052 14.982 450.405 13.9584 447.043 13.8211L446.961 15.8195C449.979 15.9426 451.987 16.8396 453.21 18.3344L454.758 17.0679ZM447.006 13.8203L434.799 13.7715L434.791 15.7715L446.998 15.8203L447.006 13.8203ZM433.81 14.6001L430.099 35.938L432.069 36.2807L435.78 14.9428L433.81 14.6001ZM514.385 59.3516L515.373 59.2L515.243 58.3516H514.385V59.3516ZM489.58 59.3516V58.3516H488.962L488.686 58.9044L489.58 59.3516ZM482.256 74V75H482.874L483.15 74.4472L482.256 74ZM466.484 74L465.602 73.5287L464.816 75H466.484V74ZM504.473 2.90625V1.90625H503.873L503.591 2.43497L504.473 2.90625ZM517.705 2.90625L518.687 2.71935L518.533 1.90625H517.705V2.90625ZM531.23 74V75H532.439L532.213 73.8131L531.23 74ZM516.631 74L515.642 74.1516L515.773 75H516.631V74ZM495.439 47.4863L494.544 47.0418L493.827 48.4863H495.439V47.4863ZM512.578 47.4863V48.4863H513.741L513.567 47.3367L512.578 47.4863ZM508.574 21.0215L509.563 20.8719L509.089 17.7359L507.678 20.5769L508.574 21.0215ZM514.385 58.3516H489.58V60.3516H514.385V58.3516ZM488.686 58.9044L481.361 73.5528L483.15 74.4472L490.475 59.7988L488.686 58.9044ZM482.256 73H466.484V75H482.256V73ZM467.366 74.4713L505.355 3.37753L503.591 2.43497L465.602 73.5287L467.366 74.4713ZM504.473 3.90625H517.705V1.90625H504.473V3.90625ZM516.723 3.09315L530.248 74.1869L532.213 73.8131L518.687 2.71935L516.723 3.09315ZM531.23 73H516.631V75H531.23V73ZM517.619 73.8484L515.373 59.2L513.396 59.5031L515.642 74.1516L517.619 73.8484ZM495.439 48.4863H512.578V46.4863H495.439V48.4863ZM513.567 47.3367L509.563 20.8719L507.585 21.1711L511.589 47.6359L513.567 47.3367ZM507.678 20.5769L494.544 47.0418L496.335 47.9309L509.47 21.4661L507.678 20.5769ZM591.68 74.9766L591.659 75.9763L591.661 75.9764L591.68 74.9766ZM579.18 71.6562L578.665 72.5138L578.674 72.5192L579.18 71.6562ZM570.635 62.4277L569.746 62.8864L569.751 62.895L570.635 62.4277ZM567.021 48.5605L568.02 48.4982L568.019 48.4936L567.021 48.5605ZM587.627 5.20117L587.175 4.30934L587.172 4.31068L587.627 5.20117ZM602.178 1.92969L602.198 0.929893L602.196 0.929863L602.178 1.92969ZM614.727 5.34766L614.206 6.20172L614.212 6.20515L614.727 5.34766ZM623.174 14.6738L622.281 15.1239L622.282 15.1268L623.174 14.6738ZM626.689 28.4434L627.688 28.3866L627.688 28.3865L626.689 28.4434ZM605.986 71.8027L605.539 70.9083L605.536 70.9096L605.986 71.8027ZM611.943 36.5L612.935 36.6286L612.938 36.6063L612.94 36.5839L611.943 36.5ZM612.334 31.8613L613.33 31.9452L613.332 31.9313L613.332 31.9174L612.334 31.8613ZM609.99 18.6777L609.14 19.2044L609.144 19.211L609.99 18.6777ZM601.494 13.9902L601.528 12.9908L601.527 12.9908L601.494 13.9902ZM587.285 21.9004L586.444 21.3596L586.442 21.3632L587.285 21.9004ZM581.377 44.8496L582.375 44.906L582.376 44.8959L581.377 44.8496ZM583.672 58.1797L582.812 58.6902L582.814 58.6942L583.672 58.1797ZM592.314 63.0137L592.359 62.0146L592.348 62.0142L592.314 63.0137ZM605.01 57.0566L605.791 57.6806L605.794 57.6777L605.01 57.0566ZM611.602 39.1367L612.593 39.2705L612.593 39.2653L611.602 39.1367ZM591.7 73.9768C587.129 73.8822 583.133 72.8125 579.685 70.7933L578.674 72.5192C582.453 74.7318 586.79 75.8756 591.659 75.9763L591.7 73.9768ZM579.694 70.7988C576.283 68.7521 573.557 65.8171 571.519 61.9605L569.751 62.895C571.944 67.0461 574.915 70.2635 578.665 72.5137L579.694 70.7988ZM571.523 61.9691C569.512 58.0727 568.338 53.5887 568.02 48.4982L566.023 48.6229C566.356 53.949 567.591 58.7098 569.746 62.8864L571.523 61.9691ZM568.019 48.4936C567.669 43.2736 568.225 37.6814 569.701 31.7108L567.76 31.2306C566.242 37.3694 565.658 43.1704 566.024 48.6275L568.019 48.4936ZM569.701 31.7108C571.171 25.7681 573.529 20.5659 576.767 16.09L575.147 14.9178C571.744 19.6216 569.285 25.064 567.76 31.2306L569.701 31.7108ZM576.767 16.09C580.007 11.6113 583.781 8.28941 588.082 6.09167L587.172 4.31068C582.554 6.67022 578.548 10.2168 575.147 14.9178L576.767 16.09ZM588.079 6.093C592.421 3.89091 597.108 2.83481 602.159 2.92951L602.196 0.929863C596.83 0.82925 591.818 1.95414 587.175 4.30935L588.079 6.093ZM602.157 2.92948C606.791 3.02405 610.797 4.12495 614.206 6.2017L615.247 4.49361C611.495 2.20839 607.134 1.03064 602.198 0.929895L602.157 2.92948ZM614.212 6.20515C617.616 8.24748 620.307 11.2078 622.281 15.1239L624.067 14.2238C621.939 10.0019 618.999 6.74471 615.241 4.49016L614.212 6.20515ZM622.282 15.1268C624.262 19.0241 625.405 23.476 625.691 28.5002L627.688 28.3865C627.388 23.1242 626.187 18.3964 624.065 14.2209L622.282 15.1268ZM625.691 28.5001C626.01 34.1173 625.405 39.9057 623.866 45.8693L625.802 46.369C627.388 40.2232 628.02 34.2278 627.688 28.3866L625.691 28.5001ZM623.866 45.8693C622.331 51.8156 619.957 56.9351 616.756 61.2456L618.361 62.438C621.736 57.8943 624.212 52.5321 625.802 46.369L623.866 45.8693ZM616.756 61.2456C613.551 65.5613 609.811 68.7726 605.539 70.9083L606.434 72.6972C611.016 70.4058 614.991 66.9765 618.361 62.438L616.756 61.2456ZM605.536 70.9096C601.294 73.0466 596.687 74.0715 591.699 73.9767L591.661 75.9764C596.959 76.077 601.89 74.9859 606.436 72.6958L605.536 70.9096ZM612.94 36.5839L613.33 31.9452L611.338 31.7774L610.947 36.4161L612.94 36.5839ZM613.332 31.9174C613.663 26.0365 612.886 21.3954 610.836 18.1444L609.144 19.211C610.871 21.9497 611.656 26.0976 611.336 31.8052L613.332 31.9174ZM610.84 18.1511C608.793 14.8459 605.638 13.1313 601.528 12.9908L601.46 14.9897C604.967 15.1096 607.477 16.52 609.14 19.2044L610.84 18.1511ZM601.527 12.9908C595.181 12.7827 590.129 15.6273 586.444 21.3596L588.126 22.4411C591.473 17.236 595.893 14.8071 601.461 14.9897L601.527 12.9908ZM586.442 21.3632C582.828 27.0363 580.838 34.8813 580.378 44.8033L582.376 44.8959C582.827 35.1564 584.776 27.702 588.129 22.4376L586.442 21.3632ZM580.379 44.7932C580.048 50.6463 580.811 55.3208 582.812 58.6902L584.532 57.6692C582.821 54.7886 582.055 50.5763 582.375 44.906L580.379 44.7932ZM582.814 58.6942C584.861 62.1056 588.07 63.8727 592.281 64.0131L592.348 62.0142C588.747 61.8942 586.193 60.4387 584.529 57.6652L582.814 58.6942ZM592.27 64.0127C597.719 64.2556 602.251 62.1149 605.791 57.6806L604.228 56.4327C601.063 60.3968 597.132 62.2275 592.359 62.0147L592.27 64.0127ZM605.794 57.6777C609.297 53.2561 611.537 47.0893 612.593 39.2705L610.611 39.0029C609.583 46.6138 607.428 52.3936 604.226 56.4356L605.794 57.6777ZM612.593 39.2653L612.935 36.6286L610.952 36.3714L610.61 39.0082L612.593 39.2653ZM702.227 43.1895V44.1895H703.064L703.211 43.3654L702.227 43.1895ZM674.98 43.1895V42.1895H674.14L673.995 43.0177L674.98 43.1895ZM671.66 62.2324L670.675 62.0607L670.471 63.2324H671.66V62.2324ZM703.691 62.2324L704.677 62.4041L704.881 61.2324H703.691V62.2324ZM701.641 74V75H702.481L702.626 74.1717L701.641 74ZM655.303 74L654.318 73.8288L654.114 75H655.303V74ZM667.656 2.90625V1.90625H666.815L666.671 2.73505L667.656 2.90625ZM713.896 2.90625L714.881 3.0805L715.089 1.90625H713.896V2.90625ZM711.797 14.7715V15.7715H712.635L712.782 14.9457L711.797 14.7715ZM679.912 14.7715V13.7715H679.073L678.927 14.5983L679.912 14.7715ZM676.934 31.7148L675.949 31.5417L675.742 32.7148H676.934V31.7148ZM704.277 31.7148L705.262 31.8908L705.472 30.7148H704.277V31.7148ZM702.227 42.1895H674.98V44.1895H702.227V42.1895ZM673.995 43.0177L670.675 62.0607L672.645 62.4042L675.966 43.3612L673.995 43.0177ZM671.66 63.2324H703.691V61.2324H671.66V63.2324ZM702.706 62.0607L700.655 73.8283L702.626 74.1717L704.677 62.4041L702.706 62.0607ZM701.641 73H655.303V75H701.641V73ZM656.288 74.1712L668.641 3.07745L666.671 2.73505L654.318 73.8288L656.288 74.1712ZM667.656 3.90625H713.896V1.90625H667.656V3.90625ZM712.912 2.732L710.812 14.5972L712.782 14.9457L714.881 3.0805L712.912 2.732ZM711.797 13.7715H679.912V15.7715H711.797V13.7715ZM678.927 14.5983L675.949 31.5417L677.919 31.888L680.897 14.9446L678.927 14.5983ZM676.934 32.7148H704.277V30.7148H676.934V32.7148ZM703.293 31.5389L701.242 43.0135L703.211 43.3654L705.262 31.8908L703.293 31.5389ZM749.492 55.0059L748.507 54.8321L748.506 54.8415L749.492 55.0059ZM743.779 46.1191L744.195 45.2094L744.172 45.1993L744.15 45.1903L743.779 46.1191ZM734.355 42.3594L733.948 43.2725L733.966 43.2807L733.985 43.2882L734.355 42.3594ZM718.779 22.1934L719.777 22.2579L719.778 22.2506L718.779 22.1934ZM722.686 11.6465L723.475 12.2598L722.686 11.6465ZM732.695 4.46875L733.068 5.39676L733.074 5.3943L732.695 4.46875ZM746.611 1.92969L746.63 0.92985L746.624 0.929773L746.611 1.92969ZM763.262 8.08203L762.577 8.81122L762.58 8.81402L763.262 8.08203ZM769.512 23.9512V24.9512H770.502L770.512 23.961L769.512 23.9512ZM755.254 23.9512L754.255 23.9007L754.202 24.9512H755.254V23.9512ZM753.105 16.4316L752.352 17.0892L752.359 17.0968L753.105 16.4316ZM745.781 13.6484L745.761 14.6482L745.762 14.6482L745.781 13.6484ZM737.285 15.8945L737.821 16.7387L737.829 16.7335L737.285 15.8945ZM732.988 22.2422L733.973 22.4139L733.974 22.4085L732.988 22.2422ZM740.117 30.6895L739.756 31.6218L739.763 31.6246L740.117 30.6895ZM746.562 33.1309L746.981 32.2225L746.949 32.208L746.917 32.1957L746.562 33.1309ZM750.273 34.8398L750.717 33.9436L750.704 33.9374L750.692 33.9315L750.273 34.8398ZM763.75 54.8594L762.753 54.7876L762.752 54.7898L763.75 54.8594ZM759.697 65.748L758.911 65.1295L758.911 65.1306L759.697 65.748ZM749.932 72.7305L749.565 71.8L749.563 71.801L749.932 72.7305ZM736.357 75.0254L736.377 74.0256L736.377 74.0256L736.357 75.0254ZM722.881 71.8516L722.425 72.7415L722.881 71.8516ZM713.896 63.3066L714.77 62.8197L714.768 62.8168L713.896 63.3066ZM711.211 51.5879L711.214 50.5879L710.24 50.5846L710.211 51.5583L711.211 51.5879ZM725.518 51.6367L726.516 51.6957L726.578 50.6403L725.521 50.6367L725.518 51.6367ZM736.895 63.4043L736.878 64.4042L736.886 64.4043H736.895V63.4043ZM745.488 61.1094L744.925 60.2829L745.488 61.1094ZM750.477 55.1796C750.857 53.0264 750.522 51.0562 749.418 49.3382C748.328 47.6432 746.548 46.2837 744.195 45.2094L743.364 47.0288C745.503 48.0053 746.921 49.1524 747.735 50.4197C748.535 51.6638 748.811 53.1117 748.507 54.8321L750.477 55.1796ZM744.15 45.1903L734.726 41.4306L733.985 43.2882L743.409 47.048L744.15 45.1903ZM734.763 41.4462C729.387 39.0462 725.512 36.2321 723.05 33.0445C720.604 29.8782 719.516 26.2983 719.777 22.2579L717.781 22.1289C717.489 26.6497 718.72 30.7113 721.467 34.267C724.197 37.8014 728.386 40.7898 733.948 43.2725L734.763 41.4462ZM719.778 22.2506C719.994 18.4757 721.227 15.1553 723.475 12.2598L721.896 11.0331C719.392 14.2575 718.02 17.9683 717.781 22.1361L719.778 22.2506ZM723.475 12.2598C725.723 9.36502 728.903 7.06889 733.068 5.39674L732.323 3.54076C727.894 5.31914 724.4 7.80815 721.896 11.0331L723.475 12.2598ZM733.074 5.3943C737.238 3.69094 741.742 2.86612 746.598 2.9296L746.624 0.929773C741.52 0.863043 736.747 1.73094 732.317 3.5432L733.074 5.3943ZM746.592 2.92951C753.261 3.05593 758.559 5.03967 762.577 8.81122L763.946 7.35284C759.501 3.18168 753.698 1.06386 746.63 0.929867L746.592 2.92951ZM762.58 8.81402C766.575 12.5321 768.575 17.5358 768.512 23.9414L770.512 23.961C770.579 17.0853 768.412 11.5096 763.943 7.35004L762.58 8.81402ZM769.512 22.9512H755.254V24.9512H769.512V22.9512ZM756.253 24.0016C756.424 20.6098 755.676 17.8131 753.852 15.7664L752.359 17.0968C753.726 18.6309 754.409 20.8473 754.255 23.9007L756.253 24.0016ZM753.859 15.7741C752.047 13.6975 749.288 12.717 745.801 12.6486L745.762 14.6482C748.916 14.7101 751.039 15.585 752.352 17.0892L753.859 15.7741ZM745.801 12.6486C742.374 12.5801 739.339 13.3701 736.741 15.0556L737.829 16.7335C740.049 15.294 742.678 14.5866 745.761 14.6482L745.801 12.6486ZM736.749 15.0504C734.112 16.7252 732.507 19.0817 732.002 22.0759L733.974 22.4085C734.381 19.9991 735.64 18.1238 737.821 16.7387L736.749 15.0504ZM732.003 22.0705C731.642 24.1437 732.169 26.0321 733.542 27.6601C734.883 29.2484 736.994 30.5505 739.756 31.6218L740.479 29.7571C737.87 28.7451 736.107 27.5976 735.071 26.3702C734.068 25.1824 733.716 23.8889 733.973 22.4139L732.003 22.0705ZM739.763 31.6246L746.208 34.066L746.917 32.1957L740.471 29.7543L739.763 31.6246ZM746.144 34.0392L749.855 35.7482L750.692 33.9315L746.981 32.2225L746.144 34.0392ZM749.83 35.7361C754.525 38.06 757.893 40.8154 760.015 43.9676C762.127 47.1052 763.047 50.6967 762.753 54.7876L764.747 54.9312C765.071 50.4283 764.054 46.3864 761.674 42.8507C759.304 39.3298 755.624 36.3723 750.717 33.9436L749.83 35.7361ZM762.752 54.7898C762.472 58.8059 761.186 62.2401 758.911 65.1295L760.483 66.3666C763.026 63.1362 764.442 59.3113 764.748 54.929L762.752 54.7898ZM758.911 65.1306C756.66 67.9977 753.56 70.2273 749.565 71.8L750.298 73.6609C754.572 71.9784 757.982 69.5531 760.484 66.3655L758.911 65.1306ZM749.563 71.801C745.599 73.3739 741.208 74.1209 736.377 74.0256L736.338 76.0252C741.402 76.1252 746.061 75.3422 750.3 73.66L749.563 71.801ZM736.377 74.0256C731.462 73.9305 727.123 72.9014 723.337 70.9616L722.425 72.7415C726.517 74.8382 731.162 75.925 736.338 76.0252L736.377 74.0256ZM723.337 70.9616C719.565 69.0287 716.719 66.3164 714.77 62.8197L713.023 63.7936C715.175 67.6537 718.32 70.638 722.425 72.7415L723.337 70.9616ZM714.768 62.8168C712.947 59.5758 712.085 55.8531 712.211 51.6175L710.211 51.5583C710.076 56.1118 711.005 60.2016 713.025 63.7965L714.768 62.8168ZM711.208 52.5879L725.514 52.6367L725.521 50.6367L711.214 50.5879L711.208 52.5879ZM724.519 51.5778C724.282 55.5954 725.141 58.8252 727.301 61.0598C729.454 63.2862 732.718 64.3368 736.878 64.4042L736.911 62.4044C733.031 62.3416 730.379 61.3658 728.739 59.6697C727.107 57.9818 726.297 55.3929 726.516 51.6957L724.519 51.5778ZM736.895 64.4043C740.522 64.4043 743.598 63.6069 746.051 61.9359L744.925 60.2829C742.886 61.6718 740.233 62.4043 736.895 62.4043V64.4043ZM746.051 61.9359C748.509 60.2618 750.008 57.9949 750.479 55.1703L748.506 54.8415C748.13 57.0949 746.96 58.897 744.925 60.2829L746.051 61.9359ZM789.238 48.9512L789.242 47.9512L788.399 47.9481L788.253 48.7784L789.238 48.9512ZM784.844 74V75H785.684L785.829 74.1728L784.844 74ZM770.537 74L769.552 73.8288L769.348 75H770.537V74ZM782.891 2.90625L782.893 1.90625L782.05 1.9046L781.905 2.73505L782.891 2.90625ZM807.793 2.95508L807.791 3.95508H807.793V2.95508ZM825.908 9.35156L826.605 8.6339L825.908 9.35156ZM831.67 26.0508L830.673 25.9705L830.673 25.9762L831.67 26.0508ZM822.93 42.75L822.312 41.9635L822.31 41.9654L822.93 42.75ZM802.715 49L802.711 50H802.715V49ZM791.24 37.0859L790.255 36.9135L790.052 38.0762L791.232 38.0859L791.24 37.0859ZM803.154 37.1836L803.146 38.1836H803.154V37.1836ZM817.266 26.1484L816.276 26.0057L817.266 26.1484ZM815.605 18.043L814.815 18.6552L814.821 18.663L815.605 18.043ZM808.623 14.8203L808.665 13.8212L808.646 13.8204L808.627 13.8203L808.623 14.8203ZM795.146 14.7715L795.15 13.7715L794.307 13.7684L794.161 14.5991L795.146 14.7715ZM788.253 48.7784L783.859 73.8272L785.829 74.1728L790.223 49.124L788.253 48.7784ZM784.844 73H770.537V75H784.844V73ZM771.522 74.1712L783.876 3.07745L781.905 2.73505L769.552 73.8288L771.522 74.1712ZM782.889 3.90625L807.791 3.95508L807.795 1.95508L782.893 1.90625L782.889 3.90625ZM807.793 3.95508C815.285 3.95508 821.048 6.0292 825.212 10.0692L826.605 8.6339C821.979 4.14528 815.666 1.95508 807.793 1.95508V3.95508ZM825.212 10.0692C829.364 14.098 831.206 19.3575 830.673 25.9705L832.667 26.1311C833.241 19.0071 831.242 13.1337 826.605 8.6339L825.212 10.0692ZM830.673 25.9762C830.172 32.6735 827.388 37.9772 822.312 41.9635L823.547 43.5365C829.083 39.1895 832.126 33.3603 832.667 26.1253L830.673 25.9762ZM822.31 41.9654C817.249 45.9639 810.744 48 802.715 48V50C811.092 50 818.063 47.8695 823.55 43.5346L822.31 41.9654ZM802.718 48L789.242 47.9512L789.235 49.9512L802.711 50L802.718 48ZM791.232 38.0859L803.146 38.1836L803.162 36.1836L791.248 36.086L791.232 38.0859ZM803.154 38.1836C807.174 38.1836 810.594 37.1411 813.341 34.9928L812.109 33.4174C809.777 35.2405 806.816 36.1836 803.154 36.1836V38.1836ZM813.341 34.9928C816.096 32.8379 817.733 29.9145 818.255 26.2912L816.276 26.0057C815.822 29.1532 814.431 31.6009 812.109 33.4174L813.341 34.9928ZM818.255 26.2912C818.769 22.7275 818.206 19.7207 816.39 17.4229L814.821 18.663C816.195 20.4017 816.738 22.7985 816.276 26.0057L818.255 26.2912ZM816.396 17.4308C814.615 15.1302 811.983 13.9609 808.665 13.8212L808.581 15.8194C811.448 15.9401 813.471 16.9193 814.815 18.6551L816.396 17.4308ZM808.627 13.8203L795.15 13.7715L795.143 15.7715L808.619 15.8203L808.627 13.8203ZM794.161 14.5991L790.255 36.9135L792.225 37.2584L796.132 14.9439L794.161 14.5991ZM866.729 59.3516L867.717 59.2L867.587 58.3516H866.729V59.3516ZM841.924 59.3516V58.3516H841.306L841.029 58.9044L841.924 59.3516ZM834.6 74V75H835.218L835.494 74.4472L834.6 74ZM818.828 74L817.946 73.5287L817.16 75H818.828V74ZM856.816 2.90625V1.90625H856.217L855.934 2.43497L856.816 2.90625ZM870.049 2.90625L871.031 2.71935L870.877 1.90625H870.049V2.90625ZM883.574 74V75H884.782L884.557 73.8131L883.574 74ZM868.975 74L867.986 74.1516L868.116 75H868.975V74ZM847.783 47.4863L846.887 47.0418L846.171 48.4863H847.783V47.4863ZM864.922 47.4863V48.4863H866.085L865.911 47.3367L864.922 47.4863ZM860.918 21.0215L861.907 20.8719L861.432 17.7359L860.022 20.5769L860.918 21.0215ZM866.729 58.3516H841.924V60.3516H866.729V58.3516ZM841.029 58.9044L833.705 73.5528L835.494 74.4472L842.818 59.7988L841.029 58.9044ZM834.6 73H818.828V75H834.6V73ZM819.71 74.4713L857.698 3.37753L855.934 2.43497L817.946 73.5287L819.71 74.4713ZM856.816 3.90625H870.049V1.90625H856.816V3.90625ZM869.066 3.09315L882.592 74.1869L884.557 73.8131L871.031 2.71935L869.066 3.09315ZM883.574 73H868.975V75H883.574V73ZM869.963 73.8484L867.717 59.2L865.74 59.5031L867.986 74.1516L869.963 73.8484ZM847.783 48.4863H864.922V46.4863H847.783V48.4863ZM865.911 47.3367L861.907 20.8719L859.929 21.1711L863.933 47.6359L865.911 47.3367ZM860.022 20.5769L846.887 47.0418L848.679 47.9309L861.814 21.4661L860.022 20.5769ZM947.637 50.2695L948.63 50.3814L948.756 49.2618L947.63 49.2696L947.637 50.2695ZM942.607 63.3555L943.411 63.951L943.413 63.9477L942.607 63.3555ZM931.67 72.0957L932.08 73.0079L932.085 73.0054L931.67 72.0957ZM917.119 74.9766L917.098 75.9763L917.1 75.9764L917.119 74.9766ZM904.863 71.7539L904.35 72.6121L904.356 72.6156L904.863 71.7539ZM896.611 62.7695L895.718 63.2197L895.723 63.2286L896.611 62.7695ZM893.242 49.1953L894.241 49.1444L894.241 49.1385L893.242 49.1953ZM894.463 34.2539L893.479 34.0764L893.478 34.0817L894.463 34.2539ZM900.127 18.3848L899.266 17.8756L899.264 17.8801L900.127 18.3848ZM909.844 7.39844L909.262 6.58538L909.259 6.58757L909.844 7.39844ZM927.91 1.92969L927.891 2.9295L927.892 2.92953L927.91 1.92969ZM945.391 8.76562L944.673 9.46212L944.678 9.46744L945.391 8.76562ZM952.52 27.125L952.516 28.125L953.575 28.1286L953.518 27.0711L952.52 27.125ZM938.262 27.0762H937.262V28.0728L938.258 28.0762L938.262 27.0762ZM927.227 13.8926L927.261 12.8932L927.26 12.8931L927.227 13.8926ZM915.166 19.1172L914.41 18.4625L914.407 18.4664L915.166 19.1172ZM908.867 35.084L907.879 34.9323L907.879 34.9326L908.867 35.084ZM907.5 50.3672L908.499 50.3293V50.3288L907.5 50.3672ZM910.381 59.8887L909.622 60.5395L909.627 60.5455L910.381 59.8887ZM917.754 63.0625L917.791 62.0632L917.785 62.063L917.754 63.0625ZM928.203 59.9863L928.851 60.7483L928.852 60.7476L928.203 59.9863ZM933.428 50.3672L933.421 49.3672L932.609 49.3728L932.448 50.1681L933.428 50.3672ZM920.879 73.6094L921.833 73.9076L922.245 72.5897L920.865 72.6095L920.879 73.6094ZM919.902 76.7344L918.948 76.4361L918.619 77.4871L919.697 77.7131L919.902 76.7344ZM924.443 79.4688L923.632 80.0536L923.635 80.0569L924.443 79.4688ZM907.842 96.7539L906.843 96.7069L906.792 97.7834L907.87 97.7535L907.842 96.7539ZM908.232 88.4531L908.187 87.4541L907.276 87.4952L907.234 88.4061L908.232 88.4531ZM914.482 84.1562L915.462 84.3569L915.464 84.3493L914.482 84.1562ZM910.283 80.8359L910.198 81.8323L910.205 81.8329L910.212 81.8334L910.283 80.8359ZM908.574 80.6895L907.617 80.3996L907.26 81.5804L908.489 81.6858L908.574 80.6895ZM910.674 73.7559L910.659 72.756L909.929 72.7665L909.717 73.466L910.674 73.7559ZM946.643 50.1577C946.108 54.9076 944.493 59.1022 941.802 62.7632L943.413 63.9477C946.321 59.9915 948.058 55.4622 948.63 50.3814L946.643 50.1577ZM941.804 62.7599C939.11 66.3932 935.601 69.2018 931.255 71.186L932.085 73.0054C936.723 70.8881 940.505 67.8698 943.411 63.951L941.804 62.7599ZM931.26 71.1835C926.91 73.1378 922.207 74.0718 917.138 73.9767L917.1 75.9764C922.448 76.0766 927.445 75.0901 932.08 73.0079L931.26 71.1835ZM917.14 73.9768C912.596 73.8821 908.684 72.843 905.371 70.8922L904.356 72.6156C908.009 74.7664 912.267 75.8757 917.098 75.9763L917.14 73.9768ZM905.377 70.8957C902.067 68.9159 899.44 66.0657 897.5 62.3105L895.723 63.2286C897.819 67.2859 900.694 70.4253 904.35 72.6121L905.377 70.8957ZM897.504 62.3194C895.591 58.5232 894.495 54.1382 894.241 49.1444L892.243 49.2462C892.51 54.4738 893.661 59.1383 895.718 63.2197L897.504 62.3194ZM894.241 49.1385C894.019 45.2394 894.414 40.3416 895.448 34.4262L893.478 34.0817C892.429 40.0802 892.01 45.1434 892.244 49.2521L894.241 49.1385ZM895.447 34.4314C896.503 28.5747 898.355 23.3984 900.99 18.8894L899.264 17.8801C896.495 22.616 894.571 28.019 893.479 34.0764L895.447 34.4314ZM900.988 18.8939C903.663 14.3708 906.814 10.8185 910.429 8.2093L909.259 6.58757C905.387 9.38202 902.059 13.1539 899.266 17.8756L900.988 18.8939ZM910.426 8.21149C915.516 4.56664 921.325 2.80324 927.891 2.9295L927.929 0.929873C920.953 0.795717 914.718 2.67815 909.262 6.58538L910.426 8.21149ZM927.892 2.92953C935.04 3.05603 940.595 5.26049 944.673 9.4621L946.108 8.06915C941.592 3.4166 935.494 1.06376 927.928 0.929844L927.892 2.92953ZM944.678 9.46744C948.794 13.6447 951.107 19.5088 951.521 27.1789L953.518 27.0711C953.085 19.0511 950.646 12.6756 946.103 8.06381L944.678 9.46744ZM952.523 26.125L938.265 26.0762L938.258 28.0762L952.516 28.125L952.523 26.125ZM939.262 27.0762C939.262 22.4866 938.353 18.9103 936.335 16.5611L934.818 17.8647C936.38 19.6822 937.262 22.6814 937.262 27.0762H939.262ZM936.335 16.5611C934.302 14.1955 931.208 13.0293 927.261 12.8932L927.192 14.892C930.797 15.0163 933.27 16.0636 934.818 17.8647L936.335 16.5611ZM927.26 12.8931C922.08 12.7205 917.768 14.5851 914.41 18.4625L915.922 19.7719C918.879 16.3576 922.607 14.7392 927.193 14.892L927.26 12.8931ZM914.407 18.4664C911.116 22.306 908.969 27.8312 907.879 34.9323L909.856 35.2357C910.914 28.3394 912.966 23.22 915.925 19.768L914.407 18.4664ZM907.879 34.9326C906.835 41.7485 906.367 46.9207 906.501 50.4056L908.499 50.3288C908.373 47.0429 908.816 42.0262 909.856 35.2353L907.879 34.9326ZM906.501 50.405C906.667 54.8027 907.652 58.2419 909.622 60.5395L911.14 59.2379C909.594 57.4338 908.658 54.5254 908.499 50.3293L906.501 50.405ZM909.627 60.5455C911.6 62.8116 914.342 63.9575 917.723 64.062L917.785 62.063C914.851 61.9722 912.677 61.0022 911.135 59.2319L909.627 60.5455ZM917.717 64.0618C922.257 64.2312 926.008 63.1649 928.851 60.7483L927.555 59.2244C925.19 61.2348 921.975 62.2193 917.791 62.0632L917.717 64.0618ZM928.852 60.7476C931.694 58.3258 933.527 54.9009 934.408 50.5662L932.448 50.1681C931.635 54.1668 929.985 57.1546 927.555 59.2251L928.852 60.7476ZM933.435 51.3672L947.644 51.2695L947.63 49.2696L933.421 49.3672L933.435 51.3672ZM919.924 73.3111L918.948 76.4361L920.857 77.0326L921.833 73.9076L919.924 73.3111ZM919.697 77.7131C921.522 78.0956 922.796 78.8942 923.632 80.0536L925.255 78.8839C924.072 77.2438 922.32 76.2195 920.108 75.7557L919.697 77.7131ZM923.635 80.0569C924.535 81.295 925.006 82.8069 925.006 84.6445H927.006C927.006 82.4457 926.435 80.5071 925.252 78.8806L923.635 80.0569ZM925.006 84.6445C925.006 88.0523 923.612 90.6541 920.764 92.5527L921.873 94.2168C925.275 91.9488 927.006 88.7237 927.006 84.6445H925.006ZM920.764 92.5527C917.86 94.4887 913.582 95.5941 907.814 95.7543L907.87 97.7535C913.82 97.5882 918.527 96.4475 921.873 94.2168L920.764 92.5527ZM908.841 96.8009L909.231 88.5001L907.234 88.4061L906.843 96.7069L908.841 96.8009ZM908.277 89.4521C910.195 89.3658 911.823 88.9392 913.071 88.0809C914.347 87.2042 915.139 85.936 915.462 84.3569L913.503 83.9556C913.273 85.0783 912.747 85.8772 911.938 86.4328C911.104 87.0068 909.884 87.3777 908.187 87.4541L908.277 89.4521ZM915.464 84.3493C915.586 83.7256 915.581 83.1056 915.39 82.5216C915.197 81.9298 914.835 81.4389 914.346 81.0525C913.407 80.3099 912.011 79.9568 910.354 79.8385L910.212 81.8334C911.745 81.9429 912.645 82.2571 913.105 82.6213C913.316 82.7883 913.43 82.9607 913.489 83.142C913.551 83.3311 913.574 83.594 913.501 83.9632L915.464 84.3493ZM910.369 79.8396L908.66 79.6931L908.489 81.6858L910.198 81.8323L910.369 79.8396ZM909.531 80.9793L911.631 74.0457L909.717 73.466L907.617 80.3996L909.531 80.9793ZM910.688 74.7558L920.893 74.6093L920.865 72.6095L910.659 72.756L910.688 74.7558ZM982.207 74.9766L982.186 75.9763L982.188 75.9764L982.207 74.9766ZM969.707 71.6562L969.193 72.5138L969.202 72.5192L969.707 71.6562ZM961.162 62.4277L960.273 62.8864L960.278 62.895L961.162 62.4277ZM957.549 48.5605L958.547 48.4982L958.547 48.4936L957.549 48.5605ZM978.154 5.20117L977.702 4.30934L977.699 4.31068L978.154 5.20117ZM992.705 1.92969L992.725 0.929893L992.724 0.929863L992.705 1.92969ZM1005.25 5.34766L1004.73 6.20172L1004.74 6.20515L1005.25 5.34766ZM1013.7 14.6738L1012.81 15.1239L1012.81 15.1268L1013.7 14.6738ZM1017.22 28.4434L1018.22 28.3866L1018.22 28.3865L1017.22 28.4434ZM996.514 71.8027L996.066 70.9083L996.064 70.9096L996.514 71.8027ZM1002.47 36.5L1003.46 36.6286L1003.47 36.6063L1003.47 36.5839L1002.47 36.5ZM1002.86 31.8613L1003.86 31.9452L1003.86 31.9313L1003.86 31.9174L1002.86 31.8613ZM1000.52 18.6777L999.667 19.2044L999.672 19.211L1000.52 18.6777ZM992.021 13.9902L992.056 12.9908L992.054 12.9908L992.021 13.9902ZM977.812 21.9004L976.971 21.3596L976.969 21.3632L977.812 21.9004ZM971.904 44.8496L972.903 44.906L972.903 44.8959L971.904 44.8496ZM974.199 58.1797L973.339 58.6902L973.342 58.6942L974.199 58.1797ZM982.842 63.0137L982.886 62.0146L982.875 62.0142L982.842 63.0137ZM995.537 57.0566L996.319 57.6806L996.321 57.6777L995.537 57.0566ZM1002.13 39.1367L1003.12 39.2705L1003.12 39.2653L1002.13 39.1367ZM982.228 73.9768C977.656 73.8822 973.66 72.8125 970.212 70.7933L969.202 72.5192C972.98 74.7318 977.318 75.8756 982.186 75.9763L982.228 73.9768ZM970.221 70.7988C966.81 68.7521 964.084 65.8171 962.046 61.9605L960.278 62.895C962.472 67.0461 965.442 70.2635 969.193 72.5137L970.221 70.7988ZM962.051 61.9691C960.04 58.0727 958.865 53.5887 958.547 48.4982L956.551 48.6229C956.884 53.949 958.118 58.7098 960.273 62.8864L962.051 61.9691ZM958.547 48.4936C958.196 43.2736 958.752 37.6814 960.229 31.7108L958.287 31.2306C956.769 37.3694 956.185 43.1704 956.551 48.6275L958.547 48.4936ZM960.229 31.7108C961.698 25.7681 964.057 20.5659 967.295 16.09L965.674 14.9178C962.271 19.6216 959.812 25.064 958.287 31.2306L960.229 31.7108ZM967.295 16.09C970.534 11.6113 974.308 8.28941 978.609 6.09167L977.699 4.31068C973.081 6.67022 969.075 10.2168 965.674 14.9178L967.295 16.09ZM978.607 6.093C982.948 3.89091 987.636 2.83481 992.686 2.92951L992.724 0.929863C987.358 0.82925 982.345 1.95414 977.702 4.30935L978.607 6.093ZM992.685 2.92948C997.319 3.02405 1001.32 4.12495 1004.73 6.2017L1005.77 4.49361C1002.02 2.20839 997.662 1.03064 992.725 0.929895L992.685 2.92948ZM1004.74 6.20515C1008.14 8.24748 1010.83 11.2078 1012.81 15.1239L1014.59 14.2238C1012.47 10.0019 1009.53 6.74471 1005.77 4.49016L1004.74 6.20515ZM1012.81 15.1268C1014.79 19.0241 1015.93 23.476 1016.22 28.5002L1018.22 28.3865C1017.92 23.1242 1016.71 18.3964 1014.59 14.2209L1012.81 15.1268ZM1016.22 28.5001C1016.54 34.1173 1015.93 39.9057 1014.39 45.8693L1016.33 46.369C1017.92 40.2232 1018.55 34.2278 1018.22 28.3866L1016.22 28.5001ZM1014.39 45.8693C1012.86 51.8156 1010.48 56.9351 1007.28 61.2456L1008.89 62.438C1012.26 57.8943 1014.74 52.5321 1016.33 46.369L1014.39 45.8693ZM1007.28 61.2456C1004.08 65.5613 1000.34 68.7726 996.066 70.9083L996.961 72.6972C1001.54 70.4058 1005.52 66.9765 1008.89 62.438L1007.28 61.2456ZM996.064 70.9096C991.821 73.0466 987.214 74.0715 982.226 73.9767L982.188 75.9764C987.486 76.077 992.417 74.9859 996.964 72.6958L996.064 70.9096ZM1003.47 36.5839L1003.86 31.9452L1001.86 31.7774L1001.47 36.4161L1003.47 36.5839ZM1003.86 31.9174C1004.19 26.0365 1003.41 21.3954 1001.36 18.1444L999.672 19.211C1001.4 21.9497 1002.18 26.0976 1001.86 31.8052L1003.86 31.9174ZM1001.37 18.1511C999.32 14.8459 996.166 13.1313 992.056 12.9908L991.987 14.9897C995.494 15.1096 998.004 16.52 999.667 19.2044L1001.37 18.1511ZM992.054 12.9908C985.709 12.7827 980.656 15.6273 976.971 21.3596L978.654 22.4411C982 17.236 986.42 14.8071 991.989 14.9897L992.054 12.9908ZM976.969 21.3632C973.356 27.0363 971.365 34.8813 970.905 44.8033L972.903 44.8959C973.355 35.1564 975.303 27.702 978.656 22.4376L976.969 21.3632ZM970.906 44.7932C970.575 50.6463 971.339 55.3208 973.339 58.6902L975.059 57.6692C973.349 54.7886 972.582 50.5763 972.903 44.906L970.906 44.7932ZM973.342 58.6942C975.389 62.1056 978.597 63.8727 982.808 64.0131L982.875 62.0142C979.274 61.8942 976.721 60.4387 975.057 57.6652L973.342 58.6942ZM982.797 64.0127C988.246 64.2556 992.778 62.1149 996.319 57.6806L994.756 56.4327C991.591 60.3968 987.659 62.2275 982.886 62.0147L982.797 64.0127ZM996.321 57.6777C999.824 53.2561 1002.06 47.0893 1003.12 39.2705L1001.14 39.0029C1000.11 46.6138 997.956 52.3936 994.753 56.4356L996.321 57.6777ZM1003.12 39.2653L1003.46 36.6286L1001.48 36.3714L1001.14 39.0082L1003.12 39.2653Z" fill="#DFDFDF"/>
</svg>
