<svg width="29" height="29" viewBox="0 0 29 29" fill="none" xmlns="http://www.w3.org/2000/svg">
<path d="M14.5989 0.613556C6.91571 0.613556 0.667237 6.85947 0.663819 14.5371C0.662965 17.1681 1.39954 19.7303 2.79364 21.9472L3.12476 22.474L1.71741 27.6125L6.9892 26.2299L7.49805 26.5316C9.63642 27.8005 12.088 28.4717 14.5873 28.4726H14.5929C22.2701 28.4726 28.5186 22.2262 28.522 14.5482C28.5233 10.8273 27.0758 7.32901 24.4461 4.69717C21.8164 2.06534 18.3189 0.614838 14.5989 0.613556ZM22.7918 20.5237C22.4427 21.5012 20.77 22.3937 19.9655 22.5142C19.2439 22.6219 18.3313 22.6667 17.3281 22.3484C16.7197 22.1553 15.94 21.8977 14.9407 21.4666C10.7404 19.6534 7.99707 15.4253 7.78772 15.1459C7.57837 14.8665 6.07788 12.8759 6.07788 10.8153C6.07788 8.75516 7.15967 7.74216 7.54334 7.32346C7.92743 6.90433 8.38117 6.79965 8.66016 6.79965C8.93915 6.79965 9.21857 6.80222 9.46253 6.81418C9.71973 6.827 10.0649 6.71634 10.4046 7.53281C10.7537 8.37106 11.5911 10.4312 11.6957 10.6406C11.8004 10.8504 11.8701 11.0948 11.7308 11.3742C11.5911 11.6536 11.1271 12.2564 10.684 12.8059C10.4982 13.0362 10.2559 13.2412 10.5003 13.6604C10.7443 14.0791 11.5851 15.4501 12.8297 16.5601C14.4293 17.9862 15.7785 18.428 16.1972 18.6378C16.6155 18.8471 16.8599 18.8121 17.1043 18.5331C17.3482 18.2537 18.151 17.3108 18.43 16.8916C18.709 16.4725 18.9884 16.5426 19.3721 16.6823C19.7562 16.8216 21.8146 17.8346 22.2333 18.0439C22.652 18.2537 22.931 18.3584 23.0357 18.5331C23.1408 18.7079 23.1408 19.5457 22.7918 20.5237Z" fill="white"/>
</svg>
